<?xml version="1.0" encoding="UTF-8"?>
<svg version="1.1" xmlns="http://www.w3.org/2000/svg" width="477" height="155">
<path d="M0 0 C0.81597656 -0.01611328 1.63195312 -0.03222656 2.47265625 -0.04882812 C7.90572496 -0.05318853 11.654179 0.8439971 16.5 3.3125 C16.64822735 10.13095791 13.29864026 13.28265582 8.7265625 18.078125 C6.5 20.3125 6.5 20.3125 4.72265625 21.62890625 C2.67863496 24.44351704 3.19108157 27.66566315 3.3125 31 C3.32603516 31.70189453 3.33957031 32.40378906 3.35351562 33.12695312 C3.38879818 34.85579829 3.44260417 36.58424765 3.5 38.3125 C6.24625049 35.68393949 8.96851691 33.03173328 11.6875 30.375 C12.45642578 29.63958984 13.22535156 28.90417969 14.01757812 28.14648438 C20.23246992 22.038286 25.03298082 16.0715519 26.5 7.3125 C29.3125 7.5625 29.3125 7.5625 32.5 8.3125 C34.19921875 10.359375 34.19921875 10.359375 35.5 12.3125 C34.79423828 13.03953125 34.79423828 13.03953125 34.07421875 13.78125 C33.45160156 14.4515625 32.82898438 15.121875 32.1875 15.8125 C31.26517578 16.78703125 31.26517578 16.78703125 30.32421875 17.78125 C25.92333111 23.88783499 24.54625486 31.60510821 22.8125 38.8125 C22.47508789 40.18921875 22.47508789 40.18921875 22.13085938 41.59375 C21.58287859 43.83230981 21.03935655 46.07184965 20.5 48.3125 C28.1255716 45.3545521 28.1255716 45.3545521 33.47851562 39.49121094 C34.50762204 36.72698325 35.26840411 33.96976179 35.89135742 31.08789062 C36.98839876 26.1144773 38.4303983 23.42989981 42.5 20.3125 C46.5 20.3125 46.5 20.3125 49.25 22.8125 C52.36871867 26.70889402 54.65296093 31.02059098 56.9375 35.4375 C57.30391602 36.13037109 57.67033203 36.82324219 58.04785156 37.53710938 C59.66131446 40.78274199 60.56341758 42.6283047 60.22265625 46.3046875 C59.98417969 46.96726563 59.74570313 47.62984375 59.5 48.3125 C52.71251463 50.42663479 48.74480538 50.1411558 41.9921875 48.07421875 C37.6074822 46.73406588 35.05282952 46.50202166 30.91796875 48.66015625 C28.3993676 50.15018182 25.93753063 51.69390259 23.5 53.3125 C25.77364779 54.01866825 28.05110936 54.7056419 30.3359375 55.375 C32.55828653 56.03347379 34.77130068 56.72388719 36.9765625 57.4375 C46.41384858 60.29848778 53.75970733 60.58357365 63.5 59.3125 C63.5 62.2825 63.5 65.2525 63.5 68.3125 C62.530625 68.1475 61.56125 67.9825 60.5625 67.8125 C51.3894859 66.56453284 43.80279673 67.93987086 34.9375 70.3125 C33.83341797 70.59867187 32.72933594 70.88484375 31.59179688 71.1796875 C28.8918434 71.88097412 26.19489696 72.59207252 23.5 73.3125 C30.56408778 78.77001561 30.56408778 78.77001561 39.09765625 80.07421875 C41.48233879 79.485184 43.8557811 78.84853029 46.21484375 78.1640625 C51.11259208 76.89449159 55.8804962 77.0027481 60.5 79.3125 C60.07877657 90.47492089 53.44136375 98.99518545 46.5 107.3125 C41.765625 106.5625 41.765625 106.5625 39.375 104.3125 C35.70573131 98.4416701 34.22611611 92.13799139 33.5 85.3125 C32.51 84.94125 32.51 84.94125 31.5 84.5625 C29.03741248 83.53642187 26.69181254 82.43378255 24.3125 81.234375 C23.59707031 80.8744043 22.88164063 80.51443359 22.14453125 80.14355469 C21.33048828 79.73218262 21.33048828 79.73218262 20.5 79.3125 C21.37444566 82.96379746 22.27846064 86.60717477 23.1875 90.25 C23.43177734 91.27158203 23.67605469 92.29316406 23.92773438 93.34570312 C25.99160475 101.52280979 28.26202262 109.38192185 35.5 114.3125 C34.24464015 118.07857955 32.97116415 118.57691793 29.5 120.3125 C28.51 120.3125 27.52 120.3125 26.5 120.3125 C26.36464844 119.6834375 26.22929688 119.054375 26.08984375 118.40625 C24.53782294 112.23534091 22.40369749 108.43052148 17.92578125 103.90625 C16.5 102.3125 16.5 102.3125 16.5 100.3125 C15.943125 100.10625 15.38625 99.9 14.8125 99.6875 C11.64009255 97.80120368 9.82257302 95.15765195 7.5 92.3125 C6.1886455 91.28384692 4.85913473 90.27714012 3.5 89.3125 C3.39176227 91.56143954 3.31430355 93.81187575 3.25 96.0625 C3.20359375 97.31546875 3.1571875 98.5684375 3.109375 99.859375 C3.56367116 103.87535305 4.49251931 104.77863832 7.5 107.3125 C7.5 107.9725 7.5 108.6325 7.5 109.3125 C8.0775 109.51875 8.655 109.725 9.25 109.9375 C12.43601596 111.88450975 13.7156075 114.05136888 15.5 117.3125 C16.25 121.1875 16.25 121.1875 16.5 124.3125 C12.90800511 125.94331103 10.09326875 126.56831748 6.15625 126.578125 C5.15722656 126.58070313 4.15820312 126.58328125 3.12890625 126.5859375 C2.09636719 126.57820313 1.06382813 126.57046875 0 126.5625 C-1.03253906 126.57023437 -2.06507812 126.57796875 -3.12890625 126.5859375 C-4.12792969 126.58335937 -5.12695312 126.58078125 -6.15625 126.578125 C-7.06181641 126.57586914 -7.96738281 126.57361328 -8.90039062 126.57128906 C-11.73964465 126.28864356 -13.91254599 125.48723678 -16.5 124.3125 C-15.52013031 115.63365419 -11.60725104 111.33999217 -5.5 105.3125 C-3.14358476 103.39843338 -3.14358476 103.39843338 -3.3046875 100.0546875 C-3.32789063 98.77851562 -3.35109375 97.50234375 -3.375 96.1875 C-3.39304688 94.90617187 -3.41109375 93.62484375 -3.4296875 92.3046875 C-3.45289063 91.31726563 -3.47609375 90.32984375 -3.5 89.3125 C-6.59249536 92.1986476 -9.64251053 95.12633948 -12.6875 98.0625 C-13.55181641 98.86816406 -14.41613281 99.67382812 -15.30664062 100.50390625 C-21.45548552 106.48783959 -24.80862851 112.17257109 -27.5 120.3125 C-30.4719385 119.18798273 -32.83440687 118.08956209 -35.5 116.3125 C-35.5 114.3125 -35.5 114.3125 -33.1875 111.9375 C-32.300625 111.07125 -31.41375 110.205 -30.5 109.3125 C-27.05922472 105.62277973 -26.21558728 101.38714465 -25 96.625 C-24.57073446 95.00865573 -24.13976224 93.39276369 -23.70703125 91.77734375 C-23.50158691 91.00632324 -23.29614258 90.23530273 -23.08447266 89.44091797 C-22.04966569 85.67256079 -20.79652875 81.99737118 -19.5 78.3125 C-27.6679127 81.79533057 -27.6679127 81.79533057 -33.49365234 88.16503906 C-34.49646258 90.92824977 -35.20373208 93.71189547 -35.87841797 96.5703125 C-37.3534903 102.64904962 -39.27222717 105.03232881 -44.5 108.3125 C-51.92870657 101.55913039 -59.90690411 91.57792468 -60.75 81.25 C-60.6675 80.610625 -60.585 79.97125 -60.5 79.3125 C-54.54791324 76.64972434 -48.39505854 76.97079266 -42.27734375 79.078125 C-38.20377597 80.46801745 -36.32172025 80.67616337 -32.26953125 78.8828125 C-29.2621181 77.12701913 -26.36071806 75.2970929 -23.5 73.3125 C-27.11942788 72.2915661 -30.74624855 71.29973385 -34.375 70.3125 C-35.38820313 70.02632813 -36.40140625 69.74015625 -37.4453125 69.4453125 C-46.17000769 67.0963561 -53.61682584 66.71808413 -62.5 68.3125 C-63.5 67.3125 -63.5 67.3125 -63.59765625 65.46484375 C-63.56510417 63.4140625 -63.53255208 61.36328125 -63.5 59.3125 C-62.68402344 59.45429687 -61.86804687 59.59609375 -61.02734375 59.7421875 C-48.64610761 61.27805357 -34.74076897 58.93288448 -23.5 53.3125 C-31.32104523 48.05779728 -31.32104523 48.05779728 -40.40234375 47.734375 C-41.44068359 48.02054688 -41.44068359 48.02054688 -42.5 48.3125 C-49.57302048 49.99606366 -54.03493763 51.04786937 -60.5 47.3125 C-59.83211811 37.07164436 -53.92610243 27.25140287 -46.5 20.3125 C-42.5 20.3125 -42.5 20.3125 -39.87890625 22.3203125 C-37.11291693 25.79937296 -36.35186931 28.95749676 -35.4375 33.1875 C-34.23409227 37.90490107 -33.26446175 40.64609748 -29.515625 43.9140625 C-26.55954708 45.60027596 -23.66277409 47.06151439 -20.5 48.3125 C-21.40139062 44.64190733 -22.32387599 40.97692338 -23.25 37.3125 C-23.50265625 36.28253906 -23.7553125 35.25257812 -24.015625 34.19140625 C-26.29137162 25.25910078 -29.28846049 18.21421057 -35.5 11.3125 C-33.52579865 8.78990939 -32.53254358 8.3195192 -29.3125 7.625 C-27.9203125 7.4703125 -27.9203125 7.4703125 -26.5 7.3125 C-26.31566406 7.99054687 -26.13132813 8.66859375 -25.94140625 9.3671875 C-23.41973944 17.45893609 -19.46129055 22.4064919 -13.5 28.3125 C-12.57316406 29.25222656 -11.64632812 30.19195312 -10.69140625 31.16015625 C-8.31043424 33.56139185 -5.91365836 35.94419222 -3.5 38.3125 C-2.20249215 28.83738501 -2.20249215 28.83738501 -5.62109375 20.37109375 C-7.40307228 18.71843151 -9.22118963 17.10383483 -11.07421875 15.53125 C-14.52432025 12.37560161 -15.3983338 9.79785524 -16.5 5.3125 C-16.5 4.3225 -16.5 3.3325 -16.5 2.3125 C-10.89229655 0.42065381 -5.89909311 -0.02329816 0 0 Z " fill="#8FE286" transform="translate(77.5,14.6875)"/>
<path d="M0 0 C1.76603506 -0.08795407 3.53332925 -0.15088363 5.30078125 -0.203125 C6.28473877 -0.24083008 7.26869629 -0.27853516 8.2824707 -0.31738281 C11 0 11 0 12.86669922 1.50195312 C14.43668656 3.5797922 15.70277136 5.74097388 17 8 C18.44934352 10.17269048 19.90800403 12.33918918 21.375 14.5 C22.57125 16.315 23.7675 18.13 25 20 C25.33 13.4 25.66 6.8 26 0 C34.49609375 -0.09765625 34.49609375 -0.09765625 37 0 C38 1 38 1 38.12025452 2.82862854 C38.11803391 3.62582809 38.11581329 4.42302765 38.11352539 5.24438477 C38.11344986 6.14524307 38.11337433 7.04610138 38.11329651 7.97425842 C38.10813522 8.95341721 38.10297394 9.93257599 38.09765625 10.94140625 C38.0962413 11.93881332 38.09482635 12.9362204 38.09336853 13.96385193 C38.08775114 17.16343124 38.07519571 20.36294169 38.0625 23.5625 C38.05748724 25.72591045 38.05292395 27.88932199 38.04882812 30.05273438 C38.03777607 35.36851325 38.02102104 40.68425171 38 46 C34.86128812 47.56935594 32.46144178 47.35201103 29 47 C24.51547489 43.25195788 21.7211939 38.69605931 18.75 33.75 C17.87079464 32.30668022 16.99063694 30.86393999 16.109375 29.421875 C15.72749023 28.78862305 15.34560547 28.15537109 14.95214844 27.50292969 C14.08353447 26.01056694 14.08353447 26.01056694 13 25 C12.97494385 25.63091553 12.9498877 26.26183105 12.92407227 26.91186523 C12.80845863 29.75396825 12.68557684 32.59571083 12.5625 35.4375 C12.52318359 36.43072266 12.48386719 37.42394531 12.44335938 38.44726562 C12.40146484 39.39150391 12.35957031 40.33574219 12.31640625 41.30859375 C12.26141968 42.62041626 12.26141968 42.62041626 12.20532227 43.95874023 C12 46 12 46 11 47 C9.33570949 47.09823937 7.66718069 47.12973631 6 47.125 C4.63875 47.12886719 4.63875 47.12886719 3.25 47.1328125 C1 47 1 47 0 46 C-0.09295815 44.55710213 -0.11746513 43.10970215 -0.11352539 41.66381836 C-0.11344986 40.7429393 -0.11337433 39.82206024 -0.11329651 38.87327576 C-0.10813522 37.87224319 -0.10297394 36.87121063 -0.09765625 35.83984375 C-0.0962413 34.82024063 -0.09482635 33.80063751 -0.09336853 32.75013733 C-0.08775097 29.47922893 -0.0751955 26.20838787 -0.0625 22.9375 C-0.05748726 20.72591244 -0.05292396 18.51432382 -0.04882812 16.30273438 C-0.03777584 10.86846643 -0.02102063 5.43423803 0 0 Z " fill="#8CDF84" transform="translate(325,53)"/>
<path d="M0 0 C3.96 0 7.92 0 12 0 C14.80826693 5.41989791 17.19198187 10.81483186 19.26953125 16.55078125 C19.55479172 17.33140427 19.84005219 18.11202728 20.13395691 18.91630554 C20.72880828 20.54980738 21.32109336 22.18424589 21.91088867 23.81958008 C22.81772308 26.32694162 23.73956061 28.82846233 24.66210938 31.33007812 C25.24050217 32.92414607 25.81800845 34.51853603 26.39453125 36.11328125 C26.80998955 37.23359489 26.80998955 37.23359489 27.23384094 38.37654114 C29.11446683 43.65659952 29.11446683 43.65659952 28 47 C24.37 47 20.74 47 17 47 C14 41.25 14 41.25 14 39 C11.55764178 39.00600826 9.12806579 39.05328457 6.6875 39.125 C5.99720703 39.12242188 5.30691406 39.11984375 4.59570312 39.1171875 C2.29299308 39.14483876 2.29299308 39.14483876 -1 40 C-3.00495325 42.88332358 -3.00495325 42.88332358 -4 46 C-5.66561399 47.66561399 -7.65962705 47.17115945 -9.9375 47.1875 C-10.83339844 47.20167969 -11.72929687 47.21585938 -12.65234375 47.23046875 C-15 47 -15 47 -17 45 C-16.69147095 44.20287598 -16.69147095 44.20287598 -16.37670898 43.38964844 C-12.15340878 32.45379485 -8.04342993 21.49603246 -4.25952148 10.39941406 C-3.99083252 9.61663086 -3.72214355 8.83384766 -3.4453125 8.02734375 C-3.21344238 7.34406006 -2.98157227 6.66077637 -2.74267578 5.95678711 C-1.9670103 3.9130794 -0.97758868 1.95517736 0 0 Z M6 19 C4.515 22.96 4.515 22.96 3 27 C4.98 27 6.96 27 9 27 C8.55296014 22.52116304 8.55296014 22.52116304 6 19 Z " fill="#8EE185" transform="translate(280,53)"/>
<path d="M0 0 C1.79892373 1.7329754 3.36511204 3.31785194 4.73046875 5.41015625 C4.73046875 6.40015625 4.73046875 7.39015625 4.73046875 8.41015625 C-0.21953125 10.88515625 -0.21953125 10.88515625 -5.26953125 13.41015625 C-5.92953125 12.42015625 -6.58953125 11.43015625 -7.26953125 10.41015625 C-9.23314989 9.83266822 -9.23314989 9.83266822 -11.39453125 9.72265625 C-12.67328125 9.61953125 -13.95203125 9.51640625 -15.26953125 9.41015625 C-14.93953125 10.40015625 -14.60953125 11.39015625 -14.26953125 12.41015625 C-11.42271558 13.74480052 -11.42271558 13.74480052 -8.01953125 14.84765625 C-2.66131491 16.68423945 1.78804094 18.49358036 5.0234375 23.3515625 C6.68391658 28.18621707 6.42356414 33.53472166 4.66796875 38.28515625 C0.99444871 42.31417823 -2.01059263 44.12850017 -7.37109375 44.796875 C-14.22545854 45.02535383 -18.84598288 44.70379871 -24.26953125 40.41015625 C-29.26953125 35.39736853 -29.26953125 35.39736853 -29.26953125 32.41015625 C-27.81415557 31.57166821 -26.35512752 30.73951691 -24.89453125 29.91015625 C-24.08242188 29.44609375 -23.2703125 28.98203125 -22.43359375 28.50390625 C-20.26953125 27.41015625 -20.26953125 27.41015625 -18.26953125 27.41015625 C-17.65078125 28.36921875 -17.65078125 28.36921875 -17.01953125 29.34765625 C-15.3636186 31.69721358 -15.3636186 31.69721358 -12.20703125 32.22265625 C-9.33639792 32.65328979 -9.33639792 32.65328979 -7.26953125 31.41015625 C-6.61739833 29.3855237 -6.61739833 29.3855237 -6.26953125 27.41015625 C-7.05328125 27.34828125 -7.83703125 27.28640625 -8.64453125 27.22265625 C-15.11392457 25.77261982 -22.14026651 22.79615374 -26.26953125 17.41015625 C-27.62820524 13.33413428 -28.10374939 9.62264784 -26.55078125 5.50390625 C-24.45635816 1.51774618 -22.37700501 -0.78656259 -18.26953125 -2.58984375 C-12.05448331 -4.19844439 -5.36380019 -3.75742973 0 0 Z " fill="#8EE085" transform="translate(455.26953125,55.58984375)"/>
<path d="M0 0 C3.18732254 -0.08797281 6.37432788 -0.14071341 9.5625 -0.1875 C10.45775391 -0.21263672 11.35300781 -0.23777344 12.27539062 -0.26367188 C18.59295081 -0.33309561 23.80269235 0.18264147 28.7421875 4.53515625 C32.9716238 10.23760312 33.80416293 13.9255396 33 21 C31.1875 24.4375 31.1875 24.4375 29 27 C28.54625 27.5775 28.0925 28.155 27.625 28.75 C22.89151934 32.39113897 17.66908948 32.19548584 12 32 C12 36.62 12 41.24 12 46 C9.6203388 47.1898306 8.08514265 47.13349966 5.4375 47.125 C4.22900391 47.12886719 4.22900391 47.12886719 2.99609375 47.1328125 C1 47 1 47 0 46 C-0.09295815 44.55710213 -0.11746513 43.10970215 -0.11352539 41.66381836 C-0.11344986 40.7429393 -0.11337433 39.82206024 -0.11329651 38.87327576 C-0.10813522 37.87224319 -0.10297394 36.87121063 -0.09765625 35.83984375 C-0.0962413 34.82024063 -0.09482635 33.80063751 -0.09336853 32.75013733 C-0.08775097 29.47922893 -0.0751955 26.20838787 -0.0625 22.9375 C-0.05748726 20.72591244 -0.05292396 18.51432382 -0.04882812 16.30273438 C-0.03777584 10.86846643 -0.02102063 5.43423803 0 0 Z M12 12 C12 14.64 12 17.28 12 20 C16.0100934 20.17864631 16.0100934 20.17864631 20 20 C20.66 19.34 21.32 18.68 22 18 C21.71016731 14.69316534 21.71016731 14.69316534 20 12 C17.32941149 11.85884839 14.67567762 11.95752893 12 12 Z " fill="#8FE185" transform="translate(169,53)"/>
<path d="M0 0 C4.82380802 -0.0246519 9.64757967 -0.04283693 14.47143555 -0.05493164 C16.11369464 -0.05997174 17.75594923 -0.06680378 19.39819336 -0.07543945 C21.75375479 -0.08751926 24.10925709 -0.09323139 26.46484375 -0.09765625 C27.20339096 -0.10281754 27.94193817 -0.10797882 28.7028656 -0.11329651 C30.46898088 -0.1134925 32.23497146 -0.06194719 34 0 C35 1 35 1 35.1328125 3.25 C35.13023437 4.1575 35.12765625 5.065 35.125 6 C35.12886719 7.36125 35.12886719 7.36125 35.1328125 8.75 C35 11 35 11 34 12 C32.14712498 12.07226502 30.29166122 12.0838122 28.4375 12.0625 C27.42558594 12.05347656 26.41367187 12.04445313 25.37109375 12.03515625 C24.19740234 12.01775391 24.19740234 12.01775391 23 12 C23.00785522 13.53708618 23.00785522 13.53708618 23.01586914 15.10522461 C23.03391969 18.89395276 23.0454322 22.68267709 23.05493164 26.47143555 C23.05997174 28.11369464 23.06680378 29.75594923 23.07543945 31.39819336 C23.08751926 33.75375479 23.09323139 36.10925709 23.09765625 38.46484375 C23.10281754 39.20339096 23.10797882 39.94193817 23.11329651 40.7028656 C23.1134925 42.46898088 23.06194719 44.23497146 23 46 C22 47 22 47 19.75 47.1328125 C18.8425 47.13023438 17.935 47.12765625 17 47.125 C15.63875 47.12886719 15.63875 47.12886719 14.25 47.1328125 C12 47 12 47 11 46 C10.91152257 43.47905924 10.88472699 40.98569107 10.90234375 38.46484375 C10.9037587 37.71159317 10.90517365 36.95834259 10.90663147 36.18226624 C10.91224624 33.7673044 10.92480117 31.35243399 10.9375 28.9375 C10.9425131 27.30403779 10.94707634 25.67057414 10.95117188 24.03710938 C10.96222046 20.02470415 10.97949494 16.01236759 11 12 C7.37 12 3.74 12 0 12 C0 8.04 0 4.08 0 0 Z " fill="#89DB83" transform="translate(379,53)"/>
<path d="M0 0 C1.81242052 -0.02687279 3.62495233 -0.04633715 5.4375 -0.0625 C6.44683594 -0.07410156 7.45617187 -0.08570313 8.49609375 -0.09765625 C11 0 11 0 12 1 C12.08847743 3.52094076 12.11527301 6.01430893 12.09765625 8.53515625 C12.0962413 9.28840683 12.09482635 10.04165741 12.09336853 10.81773376 C12.08775376 13.2326956 12.07519883 15.64756601 12.0625 18.0625 C12.0574869 19.69596221 12.05292366 21.32942586 12.04882812 22.96289062 C12.03862875 26.9753243 12.01905645 30.98755936 12 35 C17.61 35 23.22 35 29 35 C29.09765625 43.49609375 29.09765625 43.49609375 29 46 C27.19720809 47.80279191 24.45952299 47.13036605 22.03125 47.1328125 C20.82082031 47.13410156 19.61039063 47.13539062 18.36328125 47.13671875 C17.08839844 47.13285156 15.81351563 47.12898438 14.5 47.125 C13.22511719 47.12886719 11.95023438 47.13273437 10.63671875 47.13671875 C8.82107422 47.13478516 8.82107422 47.13478516 6.96875 47.1328125 C5.84919922 47.13168457 4.72964844 47.13055664 3.57617188 47.12939453 C1 47 1 47 0 46 C-0.09295815 44.55710213 -0.11746513 43.10970215 -0.11352539 41.66381836 C-0.11344986 40.7429393 -0.11337433 39.82206024 -0.11329651 38.87327576 C-0.10813522 37.87224319 -0.10297394 36.87121063 -0.09765625 35.83984375 C-0.0962413 34.82024063 -0.09482635 33.80063751 -0.09336853 32.75013733 C-0.08775097 29.47922893 -0.0751955 26.20838787 -0.0625 22.9375 C-0.05748726 20.72591244 -0.05292396 18.51432382 -0.04882812 16.30273438 C-0.03777584 10.86846643 -0.02102063 5.43423803 0 0 Z " fill="#8ADC84" transform="translate(219,53)"/>
<path d="M0 0 C0.66 0.99 1.32 1.98 2 3 C1.67 3.99 1.34 4.98 1 6 C-2.63 6 -6.26 6 -10 6 C-10.33 5.34 -10.66 4.68 -11 4 C-7.37 4 -3.74 4 0 4 C0 2.68 0 1.36 0 0 Z " fill="#53A16F" transform="translate(307,94)"/>
<path d="M0 0 C1.32 0 2.64 0 4 0 C4 2.97 4 5.94 4 9 C1.69 8.67 -0.62 8.34 -3 8 C-3 7.67 -3 7.34 -3 7 C-1.35 7 0.3 7 2 7 C2 5.02 2 3.04 2 1 C1.34 0.67 0.68 0.34 0 0 Z " fill="#5FAE74" transform="translate(137,74)"/>
<path d="M0 0 C0.66 0.33 1.32 0.66 2 1 C-0.31 3.31 -2.62 5.62 -5 8 C-5 5 -5 5 -2.5 2.3125 C-1.675 1.549375 -0.85 0.78625 0 0 Z " fill="#69B978" transform="translate(121,34)"/>
</svg>
