<?xml version="1.0" encoding="iso-8859-1"?>
<!-- Generator: Adobe Illustrator 16.0.0, SVG Export Plug-In . SVG Version: 6.00 Build 0)  -->
<!DOCTYPE svg PUBLIC "-//W3C//DTD SVG 1.1//EN" "http://www.w3.org/Graphics/SVG/1.1/DTD/svg11.dtd">
<svg version="1.1" id="Capa_1" xmlns="http://www.w3.org/2000/svg" xmlns:xlink="http://www.w3.org/1999/xlink" x="0px" y="0px"
	 width="485.213px" height="485.212px" viewBox="0 0 485.213 485.212" style="enable-background:new 0 0 485.213 485.212;"
	 xml:space="preserve">
<g>
	<g>
		<path d="M363.909,333.584V272.93h-49.13c-3.463-15.158-9.507-29.286-17.534-42.05l34.83-34.828l-42.914-42.881l-34.812,34.795
			c-12.778-8.025-26.906-14.066-42.066-17.529v-49.133h-60.654v49.133c-15.163,3.463-29.288,9.504-42.069,17.558l-34.828-34.824
			l-42.881,42.881L66.68,230.88c-8.039,12.764-14.083,26.892-17.548,42.05H0.001v60.654h49.13
			c3.465,15.163,9.493,29.29,17.534,42.055l-34.814,34.825l42.886,42.914l34.823-34.83c12.781,8.027,26.906,14.071,42.069,17.534
			v49.13h60.654v-49.13c15.161-3.463,29.271-9.507,42.053-17.534l34.825,34.83l42.914-42.914l-34.83-34.825
			c8.027-12.797,14.071-26.892,17.534-42.055H363.909z M181.956,379.074c-41.875,0-75.816-33.943-75.816-75.816
			c0-41.878,33.941-75.812,75.816-75.812c41.875,0,75.814,33.934,75.814,75.812C257.771,345.13,223.832,379.074,181.956,379.074z"/>
		<path d="M485.212,106.141V75.816h-24.577c-1.718-7.584-4.737-14.631-8.77-21.027l17.417-17.416l-21.445-21.44l-17.412,17.413
			c-6.398-4.025-13.441-7.047-21.025-8.765V0h-30.331v24.582c-7.575,1.717-14.627,4.739-21.025,8.767L340.63,15.936l-21.44,21.438
			l17.413,17.416c-4.028,6.396-7.053,13.443-8.765,21.027h-24.582v30.327h24.586c1.718,7.58,4.737,14.629,8.761,21.027
			l-17.413,17.411l21.44,21.442l17.413-17.415c6.398,4.03,13.45,7.052,21.034,8.77v24.577h30.322v-24.582
			c7.584-1.717,14.631-4.737,21.029-8.767l17.413,17.416l21.44-21.44l-17.417-17.413c4.032-6.398,7.052-13.446,8.77-21.027H485.212
			L485.212,106.141z M394.236,128.883c-20.937,0-37.906-16.967-37.906-37.906s16.97-37.906,37.906-37.906
			c20.94,0,37.905,16.967,37.905,37.906S415.177,128.883,394.236,128.883z"/>
	</g>
</g>
<g>
</g>
<g>
</g>
<g>
</g>
<g>
</g>
<g>
</g>
<g>
</g>
<g>
</g>
<g>
</g>
<g>
</g>
<g>
</g>
<g>
</g>
<g>
</g>
<g>
</g>
<g>
</g>
<g>
</g>
</svg>
