<?xml version="1.0" encoding="UTF-8"?>
<svg version="1.1" xmlns="http://www.w3.org/2000/svg" width="890" height="208">
<path d="M0 0 C2.63313039 2.38417632 4.25567458 4.91851627 6.01171875 7.99609375 C6.88872437 9.52484131 6.88872437 9.52484131 7.78344727 11.08447266 C8.41178467 12.19097168 9.04012207 13.2974707 9.6875 14.4375 C10.35364464 15.60230289 11.02023853 16.76684897 11.68725586 17.93115234 C13.44418629 21.0006348 15.19539619 24.07333986 16.94494629 27.14703369 C19.64560714 31.89014157 22.35343321 36.62916879 25.05996704 41.368927 C25.7315503 42.54529654 26.40291462 43.72179109 27.07406616 44.89840698 C31.67170732 52.95844702 36.3120399 60.99212514 41 69 C46.0318069 77.59522672 51.00389072 86.2231213 55.9375 94.875 C62.96603507 107.20025196 70.04240434 119.49722067 77.14111328 131.78222656 C80.26324606 137.18670646 83.38140055 142.59348074 86.5 148 C87.74477759 150.15756021 88.98956926 152.31511228 90.234375 154.47265625 C92.78685335 158.89690769 95.33888455 163.32141668 97.890625 167.74609375 C98.5312085 168.85662109 99.17179199 169.96714844 99.83178711 171.11132812 C101.09615201 173.30373074 102.35999897 175.49643214 103.62329102 177.68945312 C106.52879483 182.73066279 109.44357174 187.76581566 112.38671875 192.78515625 C112.90459961 193.67082275 113.42248047 194.55648926 113.95605469 195.46899414 C114.91788708 197.11225658 115.88318523 198.75349716 116.85253906 200.39233398 C120 205.77681826 120 205.77681826 120 208 C40.8 208 -38.4 208 -120 208 C-110.11406955 189.87579418 -100.00154128 171.90103197 -89.5625 154.08984375 C-85.8678669 147.78429581 -82.21147319 141.45705564 -78.5625 135.125 C-77.93996338 134.04484619 -77.31742676 132.96469238 -76.67602539 131.85180664 C-75.41423174 129.66203666 -74.15259466 127.47217645 -72.89111328 125.28222656 C-69.76319849 119.85340054 -66.63136837 114.42683444 -63.5 109 C-62.88060547 107.92621094 -62.26121094 106.85242188 -61.62304688 105.74609375 C-58.51221667 100.35312484 -55.40004851 94.96093636 -52.28515625 89.5703125 C-46.14754502 78.94532344 -40.02888482 68.31015117 -33.95046997 57.6512146 C-26.90237022 45.29256821 -19.78092834 32.97857743 -12.58544922 20.70507812 C-11.0351284 18.05993574 -9.48801984 15.41293626 -7.94140625 12.765625 C-7.02362168 11.19780884 -6.10566444 9.63009373 -5.1875 8.0625 C-4.77258301 7.35198486 -4.35766602 6.64146973 -3.93017578 5.90942383 C-1.11511093 1.11511093 -1.11511093 1.11511093 0 0 Z " fill="#DAD234" transform="translate(120,0)"/>
<path d="M0 0 C3.1096318 2.70996126 5.02515276 6.09460609 7.0625 9.625 C7.5894043 10.49318359 7.5894043 10.49318359 8.12695312 11.37890625 C10.74736941 15.9064308 13.11024144 20.67147137 13 26 C11.60869378 29.19038974 9.53356958 31.58622976 7.25 34.1875 C6.02280299 35.68200563 4.79756246 37.17811982 3.57421875 38.67578125 C2.96239746 39.40877441 2.35057617 40.14176758 1.72021484 40.89697266 C-0.64724616 43.79128277 -2.80224913 46.80760916 -4.9375 49.875 C-10.5642627 57.848557 -16.37537557 65.68432955 -22.17675781 73.53125 C-23.98293262 75.97689002 -25.78515642 78.42538637 -27.5859375 80.875 C-33.50759839 88.92888248 -39.45668349 96.95990134 -45.46582031 104.94873047 C-51.70534748 113.25368527 -57.84771643 121.63034487 -64 130 C-72.6084489 141.7110578 -81.25615478 153.38958282 -90 165 C-89.34 164.67 -88.68 164.34 -88 164 C-82.17251997 164.47077895 -76.84885889 165.75302014 -71.25 167.375 C-57.61799488 171.21405283 -43.86296323 174.56153753 -30.11425781 177.95263672 C-20.89950264 180.2319346 -11.72037 182.58907399 -2.58338928 185.1632843 C4.92825897 187.27598609 12.47755023 189.23330297 20.03686523 191.16748047 C22.35787735 191.76161575 24.67799291 192.35916653 26.99804688 192.95703125 C28.49474096 193.34134335 29.99148386 193.72546544 31.48828125 194.109375 C32.51324455 194.37340118 32.51324455 194.37340118 33.55891418 194.64276123 C37.02395893 195.52742114 40.48514808 196.3390371 44 197 C42.35 196.34 40.7 195.68 39 195 C36.56067745 169.60668877 34.13967101 144.21145432 31.95007324 118.79519653 C31.77615851 116.77821824 31.60096388 114.76134987 31.42443848 112.74459839 C31.17862794 109.9290225 30.93808645 107.11304738 30.69921875 104.296875 C30.62759018 103.48342117 30.55596161 102.66996735 30.48216248 101.8318634 C30.04184397 96.53694257 29.94074813 91.31346904 30 86 C30.33 86 30.66 86 31 86 C35.42019237 107.8814718 39.79163853 129.76743399 43.83963013 151.72131348 C44.6948402 156.3591318 45.55944165 160.99513048 46.42802429 165.63046265 C47.08569007 169.14316118 47.74015907 172.65645088 48.39401245 176.16986084 C48.7123134 177.87730784 49.03173425 179.58454648 49.35232544 181.29156494 C49.79818696 183.66771529 50.23948059 186.04467152 50.6796875 188.421875 C50.88075859 189.48518539 50.88075859 189.48518539 51.08589172 190.56997681 C51.68011289 193.80312341 52 196.69410615 52 200 C53.2375 200.144375 54.475 200.28875 55.75 200.4375 C58.57379563 200.76694282 61.25316561 201.26379889 64 202 C62.45472681 193.29027837 60.08657647 184.87792144 57.67333984 176.37890625 C56.60090524 172.59000023 55.55121614 168.79483631 54.5 165 C54.08345096 163.49996733 53.66678408 161.99996738 53.25 160.5 C50.75 151.5 50.75 151.5 50.12548828 149.25170898 C49.70722756 147.74600305 49.28893309 146.24030649 48.87060547 144.73461914 C47.85305603 141.07199462 46.8360194 137.40922969 45.8203125 133.74609375 C42.5460028 121.94106194 39.24371171 110.14392537 35.93798828 98.34765625 C34.31198868 92.54450517 32.68732454 86.74098017 31.0625 80.9375 C30.47005786 78.82161297 29.87761049 76.7057274 29.28515625 74.58984375 C28.85677083 73.05989583 28.42838542 71.52994792 28 70 C28.33 72.64 28.66 75.28 29 78 C18.32894336 85.92245114 7.50005866 93.59828605 -3.40625 101.19287109 C-14.0396928 108.60145012 -24.65278773 116.0396944 -35.25 123.5 C-36.25003052 124.20213623 -36.25003052 124.20213623 -37.27026367 124.91845703 C-41.9134785 128.19222553 -46.47127752 131.56978456 -51 135 C-49.55681396 134.1788269 -49.55681396 134.1788269 -48.08447266 133.34106445 C-38.97368247 128.17575406 -29.78729261 123.18165555 -20.51547241 118.31204224 C-16.82374712 116.37251665 -13.13633322 114.42483586 -9.44921875 112.4765625 C-8.72388443 112.09333328 -7.99855011 111.71010406 -7.25123596 111.31526184 C-0.87288376 107.94100902 5.47871898 104.51982074 11.8125 101.0625 C13.12565186 100.34646606 13.12565186 100.34646606 14.46533203 99.6159668 C17.6566407 97.86764282 20.80587655 96.12214804 23.88671875 94.18359375 C26 93 26 93 29 93 C29 97.29 29 101.58 29 106 C21.22034382 108.81954065 13.43984624 111.63672472 5.6578846 114.44989491 C2.04353579 115.75658124 -1.57044993 117.06425263 -5.18359375 118.37426758 C-8.67757236 119.64103418 -12.17252023 120.90509254 -15.66812515 122.16736412 C-16.99434616 122.64678467 -18.32022904 123.12714174 -19.64574814 123.60849953 C-27.03988575 126.2929043 -34.42940755 128.85673884 -42 131 C-42 131.66 -42 132.32 -42 133 C-41.15115234 133.36931641 -41.15115234 133.36931641 -40.28515625 133.74609375 C-37.60751742 135.21536224 -35.66956388 136.97752435 -33.4375 139.0625 C-29.95307272 142.25698224 -26.42430765 145.33831892 -22.75 148.3125 C-16.68522732 153.22573357 -10.77212352 158.30447208 -4.85986328 163.39892578 C-1.61971751 166.18822428 1.62811205 168.96855612 4.875 171.75 C6.05992879 172.76558655 7.24482779 173.78120786 8.4296875 174.796875 C9.27789062 175.52390625 10.12609375 176.2509375 11 177 C10.34 177.33 9.68 177.66 9 178 C6.98242188 176.99047852 6.98242188 176.99047852 4.46875 175.37890625 C3.52563965 174.78094238 2.5825293 174.18297852 1.61083984 173.56689453 C0.5842627 172.90544434 -0.44231445 172.24399414 -1.5 171.5625 C-3.68424515 170.17475657 -5.86916486 168.78807443 -8.0546875 167.40234375 C-8.62109955 167.04188965 -9.1875116 166.68143555 -9.77108765 166.31005859 C-16.0115596 162.34262948 -22.31777814 158.4852406 -28.625 154.625 C-37.48689494 149.18829883 -46.3008352 143.69399878 -55 138 C-57.97 139.98 -57.97 139.98 -61 142 C-61.66 141.67 -62.32 141.34 -63 141 C-56.71867638 135.18035974 -50.34904488 129.59447736 -43.68359375 124.21484375 C-41.05291443 122.04367173 -38.52057576 119.79758643 -36 117.5 C-32.60401318 114.40444804 -29.13828469 111.44848793 -25.5625 108.5625 C-20.788597 104.70174863 -16.26611572 100.62562925 -11.75 96.46875 C-8.18815771 93.27118704 -4.47434167 90.28611657 -0.75 87.28125 C3.02417402 84.15040109 6.60427791 80.82473547 10.2109375 77.50390625 C13.9967187 74.10518671 17.92135722 70.9075747 21.8828125 67.71484375 C23.86206774 66.17273924 23.86206774 66.17273924 25 65 C24.91015699 63.14227838 24.75388139 61.28752015 24.5625 59.4375 C24.40974609 57.91962891 24.40974609 57.91962891 24.25390625 56.37109375 C24.17011719 55.58863281 24.08632812 54.80617187 24 54 C26.07069869 56.07069869 26.56032862 57.14017715 27.50195312 59.83984375 C27.92620323 61.04207077 27.92620323 61.04207077 28.35902405 62.26858521 C28.66335861 63.14932709 28.96769318 64.03006897 29.28125 64.9375 C29.60649155 65.8632785 29.93173309 66.78905701 30.26683044 67.7428894 C30.97548727 69.76163542 31.68158662 71.78128057 32.38546753 73.80169678 C34.2984468 79.2912522 36.23087537 84.77396984 38.16015625 90.2578125 C38.56029434 91.39687042 38.96043243 92.53592834 39.37269592 93.70950317 C43.50140209 105.45287029 47.71284882 117.16587707 51.9375 128.875 C52.67699489 130.92705655 53.41641528 132.97913996 54.15576172 135.03125 C57.71072567 144.8952695 61.2729574 154.75664062 64.84150696 164.61575317 C66.53079868 169.28442587 68.2177229 173.95395214 69.90432739 178.62359619 C70.71420799 180.86374144 71.52529266 183.10345177 72.33761597 185.3427124 C73.45967448 188.43579449 74.57790726 191.53023443 75.6953125 194.625 C76.03185349 195.54950958 76.36839447 196.47401917 76.71513367 197.42654419 C77.01812881 198.26805023 77.32112396 199.10955627 77.63330078 199.9765625 C78.03151535 201.07605225 78.03151535 201.07605225 78.43777466 202.19775391 C79 204 79 204 79 206 C83.29 206.33 87.58 206.66 92 207 C84.43123572 189.51449713 76.84653319 172.03595668 69.25 154.5625 C68.8217392 153.57728363 68.39347839 152.59206726 67.95223999 151.57699585 C63.53471814 141.41503242 59.11429994 131.25437522 54.67578125 121.1015625 C50.84429393 112.33688907 47.02446631 103.5672055 43.21380615 94.79345703 C42.35697315 92.82153906 41.49953418 90.84988434 40.6416626 88.87841797 C37.69392915 82.10423109 34.75488504 75.32637873 31.8263855 68.54385376 C30.86225997 66.314297 29.89542029 64.08591187 28.92581177 61.85873413 C27.57596558 58.75661165 26.23601649 55.65039633 24.8984375 52.54296875 C24.28268608 51.13658142 24.28268608 51.13658142 23.65449524 49.70178223 C23.2881749 48.84524048 22.92185455 47.98869873 22.54443359 47.10620117 C22.05842178 45.98359138 22.05842178 45.98359138 21.56259155 44.83830261 C21 43 21 43 22 41 C30.12013338 56.23423253 37.86198464 71.64228466 45.54101562 87.10253906 C50.59126823 97.26400666 55.64535173 107.41578524 60.96875 117.4375 C67.59641508 129.91647894 73.82717775 142.5949732 80.11376953 155.24804688 C86.59761603 168.29051565 93.16933906 181.27100376 100.01046753 194.12998962 C106 205.44895914 106 205.44895914 106 208 C31.42 208 -43.16 208 -120 208 C-110.11406955 189.87579418 -100.00154128 171.90103197 -89.5625 154.08984375 C-85.8678669 147.78429581 -82.21147319 141.45705564 -78.5625 135.125 C-77.93996338 134.04484619 -77.31742676 132.96469238 -76.67602539 131.85180664 C-75.41423174 129.66203666 -74.15259466 127.47217645 -72.89111328 125.28222656 C-69.76319849 119.85340054 -66.63136837 114.42683444 -63.5 109 C-62.88060547 107.92621094 -62.26121094 106.85242188 -61.62304688 105.74609375 C-58.51221667 100.35312484 -55.40004851 94.96093636 -52.28515625 89.5703125 C-46.14754502 78.94532344 -40.02888482 68.31015117 -33.95046997 57.6512146 C-26.90237022 45.29256821 -19.78092834 32.97857743 -12.58544922 20.70507812 C-11.0351284 18.05993574 -9.48801984 15.41293626 -7.94140625 12.765625 C-7.02362168 11.19780884 -6.10566444 9.63009373 -5.1875 8.0625 C-4.77258301 7.35198486 -4.35766602 6.64146973 -3.93017578 5.90942383 C-1.11511093 1.11511093 -1.11511093 1.11511093 0 0 Z " fill="#FDFDF6" transform="translate(120,0)"/>
<path d="M0 0 C6.89282688 5.27451101 13.20583885 11.09832068 16.3125 19.3125 C12.74361571 21.3802435 9.15547846 23.41195839 5.5625 25.4375 C4.54671875 26.02660156 3.5309375 26.61570313 2.484375 27.22265625 C1.5046875 27.77050781 0.525 28.31835938 -0.484375 28.8828125 C-1.38510742 29.39602051 -2.28583984 29.90922852 -3.21386719 30.43798828 C-5.6875 31.3125 -5.6875 31.3125 -7.92822266 30.57275391 C-9.97089253 29.10949247 -10.97333857 27.68215428 -12.3125 25.5625 C-16.82310555 19.29777006 -23.83812954 15.02894491 -31.4453125 13.5625 C-42.94625442 12.28016501 -54.3239933 13.31071976 -64.125 20 C-72.28310518 26.85005456 -76.66003685 36.83237592 -77.6875 47.3125 C-78.58568783 61.57397011 -76.21381547 74.55460563 -66.75390625 85.5625 C-58.80336912 93.49844899 -49.05166734 95.65617489 -38.125 95.875 C-28.32037251 95.80919713 -20.09656203 92.85428052 -12.6875 86.3125 C-11.18710535 84.50262124 -11.18710535 84.50262124 -10.0625 82.5625 C-9.67835938 81.94890625 -9.29421875 81.3353125 -8.8984375 80.703125 C-7.20972089 77.36927157 -5.99970343 73.81170915 -4.6875 70.3125 C-16.2375 70.3125 -27.7875 70.3125 -39.6875 70.3125 C-39.6875 63.0525 -39.6875 55.7925 -39.6875 48.3125 C-19.5575 48.3125 0.5725 48.3125 21.3125 48.3125 C21.3125 71.4125 21.3125 94.5125 21.3125 118.3125 C14.0525 118.3125 6.7925 118.3125 -0.6875 118.3125 C-1.0175 113.6925 -1.3475 109.0725 -1.6875 104.3125 C-3.09 105.694375 -4.4925 107.07625 -5.9375 108.5 C-17.97497793 119.31332763 -32.99190375 121.15409775 -48.58740234 120.45166016 C-65.14372244 119.3545778 -80.34949704 111.77106332 -91.34765625 99.453125 C-104.407343 83.28717005 -107.41333638 63.43718728 -105.6875 43.3125 C-103.58343349 26.80818849 -95.68506289 12.85177177 -83.08984375 2.09375 C-59.53093764 -16.07542076 -24.5159589 -16.86534759 0 0 Z " fill="#F9DB3D" transform="translate(747.6875,49.6875)"/>
<path d="M0 0 C3.56307608 2.79991375 6.8176515 5.77700106 10 9 C10.56203125 9.54011719 11.1240625 10.08023438 11.703125 10.63671875 C23.59317739 23.05869453 27 41.44359013 27 58 C25.78314841 76.80415967 19.60345391 92.49663068 5.83203125 105.58984375 C1.81865826 109.00536256 -2.30691464 111.62648556 -7 114 C-7.69222656 114.37640625 -8.38445312 114.7528125 -9.09765625 115.140625 C-26.24127045 123.72845417 -47.4720771 122.81325601 -65.21875 116.93359375 C-72.10032422 114.30087028 -77.4351011 110.77449099 -83 106 C-83.82628906 105.37351562 -84.65257812 104.74703125 -85.50390625 104.1015625 C-96.82178988 94.57257753 -102.79902799 78.92006121 -104.6875 64.5625 C-104.81387172 63.0433506 -104.91669996 61.52211886 -105 60 C-105.05285156 59.10925781 -105.10570312 58.21851562 -105.16015625 57.30078125 C-105.66840661 40.74949787 -100.85319825 25.25268444 -91 12 C-89.9171875 10.4840625 -89.9171875 10.4840625 -88.8125 8.9375 C-67.60568752 -15.36618033 -25.8568212 -17.71348855 0 0 Z M-68 26 C-77.46410441 37.69642387 -78.29203652 50.45544735 -77 65 C-75.26399024 74.64105419 -70.58978798 81.64558576 -63.5625 88.3125 C-52.96445929 95.29169754 -42.18920605 97.75583228 -29.5859375 95.34765625 C-18.73492447 92.38713396 -11.52339484 87.02491194 -5.44140625 77.5703125 C0.56394533 66.86158258 1.01244135 52.10656954 -2.1875 40.3125 C-4.73219815 33.45495662 -8.5639845 27.89241395 -14 23 C-14.721875 22.319375 -15.44375 21.63875 -16.1875 20.9375 C-32.14706954 9.94312987 -54.35081445 12.35081445 -68 26 Z " fill="#FACC40" transform="translate(596,49)"/>
<path d="M0 0 C64.77272727 0 64.77272727 0 77.8125 12.75 C83.85223673 21.72332314 86.25439548 31.93597418 84.4375 42.6875 C82.52493992 49.79498678 78.07716575 55.88897611 72 60 C72.71285156 60.3403125 73.42570312 60.680625 74.16015625 61.03125 C82.20911288 65.10447704 88.43237892 69.53484073 91.875 78.125 C95.45773844 89.46667507 94.65943423 100.06877601 90 111 C83.37057153 122.04369682 76.62769979 124.11455391 64 128 C42.88 128 21.76 128 0 128 C0 85.76 0 43.52 0 0 Z M27 23 C27 32.57 27 42.14 27 52 C31.95 52.12375 31.95 52.12375 37 52.25 C38.53527344 52.30462402 38.53527344 52.30462402 40.1015625 52.36035156 C46.28298318 52.43450947 50.84947827 51.52807511 56 48 C59.08437658 44.81923665 59.24634148 41.83749968 59.4375 37.5625 C59.2842571 32.61208793 58.50662851 29.69118791 55 26 C49.42424407 22.23815185 44.08374428 22.65124545 37.625 22.8125 C34.11875 22.874375 30.6125 22.93625 27 23 Z M27 73 C27 83.56 27 94.12 27 105 C31.310625 105.061875 35.62125 105.12375 40.0625 105.1875 C41.40836182 105.21481201 42.75422363 105.24212402 44.14086914 105.27026367 C52.28834032 105.32684756 57.56751441 104.98477007 63.875 99.5 C67.35671538 95.40386426 67.3342233 91.67119708 67.2890625 86.5078125 C66.86903722 82.86380941 65.3495688 80.75235202 63 78 C62.566875 77.4225 62.13375 76.845 61.6875 76.25 C55.45309851 71.63192483 46.87394489 72.77209245 39.5625 72.875 C33.3440625 72.936875 33.3440625 72.936875 27 73 Z " fill="#FBB645" transform="translate(288,40)"/>
<path d="M0 0 C7.81405273 6.2642656 11.96532794 14.44254668 13.46875 24.25390625 C9.53463927 25.28811975 5.596015 26.30396522 1.65625 27.31640625 C0.53669922 27.61095703 -0.58285156 27.90550781 -1.73632812 28.20898438 C-2.80947266 28.48291016 -3.88261719 28.75683594 -4.98828125 29.0390625 C-5.97803955 29.2956665 -6.96779785 29.55227051 -7.98754883 29.81665039 C-10.53125 30.25390625 -10.53125 30.25390625 -13.53125 29.25390625 C-14.25463795 27.28103002 -14.97438019 25.30657581 -15.66015625 23.3203125 C-17.90809378 17.98776113 -22.41227658 15.40134868 -27.53125 13.25390625 C-30.26542885 12.91704643 -32.68174967 12.72940187 -35.40625 12.75390625 C-36.11152832 12.75745117 -36.81680664 12.76099609 -37.54345703 12.76464844 C-42.59429438 12.92573361 -46.08130256 13.81493098 -50.1484375 16.76953125 C-52.93627806 19.76212846 -53.51605496 22.11715088 -53.96875 26.19140625 C-53.84815387 29.2924496 -53.54562727 30.23182688 -51.78125 32.94140625 C-42.46412032 39.57090237 -30.41191455 42.36180792 -19.59765625 45.68359375 C-6.44137667 49.90324814 5.39187559 55.82878292 12.15625 68.38671875 C14.03335883 73.0355107 13.94514855 77.67818137 13.90625 82.62890625 C13.92623047 83.52351563 13.94621094 84.418125 13.96679688 85.33984375 C13.95981518 94.94665127 10.22148495 103.38499522 3.46875 110.25390625 C-10.71173105 121.04502803 -28.57995256 123.19419912 -45.84521484 120.95361328 C-59.6187696 118.51677747 -72.53567522 112.55375606 -80.78125 100.94140625 C-84.31773067 95.3435545 -86.53125 89.90585912 -86.53125 83.25390625 C-82.42841988 82.24836744 -78.32377943 81.25042515 -74.21875 80.25390625 C-73.05150391 79.96773438 -71.88425781 79.6815625 -70.68164062 79.38671875 C-69.00424805 78.98066406 -69.00424805 78.98066406 -67.29296875 78.56640625 C-66.26131592 78.31503906 -65.22966309 78.06367187 -64.16674805 77.8046875 C-61.53125 77.25390625 -61.53125 77.25390625 -58.53125 77.25390625 C-58.30050781 77.98996094 -58.06976562 78.72601563 -57.83203125 79.484375 C-55.27607817 87.13202909 -52.80078954 91.63683916 -45.53125 95.50390625 C-38.42531079 98.79172887 -31.29921589 99.25502461 -23.78125 97.06640625 C-19.77973114 95.57618543 -17.59716011 94.1274877 -15.53125 90.25390625 C-14.34642041 85.73674344 -14.06354614 82.52317843 -15.71875 78.12890625 C-21.01138056 69.25562794 -34.91620037 66.5750109 -44.15625 63.69140625 C-71.55720102 55.10557014 -71.55720102 55.10557014 -79.01171875 42.8125 C-83.33212927 33.34503001 -83.95735935 23.58145255 -80.5625 13.6640625 C-76.3604296 3.84331463 -69.40748498 -2.86811351 -59.59375 -7.05859375 C-39.77134596 -14.14236697 -17.4293111 -12.02299701 0 0 Z " fill="#F9E83A" transform="translate(876.53125,48.74609375)"/>
<path d="M0 0 C8.91 0 17.82 0 27 0 C27 34.32 27 68.64 27 104 C40.2 104 53.4 104 67 104 C67 111.92 67 119.84 67 128 C44.89 128 22.78 128 0 128 C0 85.76 0 43.52 0 0 Z " fill="#FABF40" transform="translate(409,40)"/>
<path d="M0 0 C2.79563775 2.49384792 4.43253404 5.25215081 6.265625 8.50390625 C6.90056885 9.62361816 7.5355127 10.74333008 8.18969727 11.89697266 C8.52494415 12.4934259 8.86019104 13.08987915 9.20559692 13.70440674 C10.62992079 16.23841553 12.06489886 18.76633761 13.4990387 21.2947998 C14.24053345 22.60249586 14.98144351 23.91052361 15.7217865 25.21887207 C19.30012854 31.54129565 22.92620131 37.83574652 26.5625 44.125 C27.80339067 46.27343447 29.04427608 48.42187197 30.28515625 50.5703125 C30.89762207 51.63024414 31.51008789 52.69017578 32.14111328 53.78222656 C35.26324605 59.18670645 38.38141204 64.59347412 41.5 70 C42.74998122 72.1666775 43.99998121 74.33334417 45.25 76.5 C57.75 98.16666667 70.25 119.83333333 82.75 141.5 C83.67993774 143.11165039 83.67993774 143.11165039 84.62866211 144.75585938 C85.86701979 146.90266914 87.1048213 149.04979984 88.34204102 151.19726562 C91.28347196 156.30118224 94.23073772 161.40148134 97.19747925 166.49072266 C98.60697037 168.90938314 100.01332765 171.32985862 101.41943359 173.75048828 C102.41978682 175.46956052 103.42469734 177.1859782 104.4296875 178.90234375 C105.02910156 179.93488281 105.62851563 180.96742188 106.24609375 182.03125 C106.77904053 182.94455078 107.3119873 183.85785156 107.86108398 184.79882812 C109 187 109 187 109 189 C104.38 189 99.76 189 95 189 C93.54980469 186.08220703 93.54980469 186.08220703 92.0703125 183.10546875 C91.09426499 181.14549479 90.11747644 179.18589174 89.140625 177.22631836 C88.48067741 175.9015053 87.82145654 174.57632988 87.16308594 173.25073242 C83.29547451 165.46493311 79.34779831 157.73055936 75.2734375 150.05078125 C68.57361378 137.40438624 62.25369529 124.56780062 55.88623047 111.75195312 C50.30334278 100.52179239 44.68763186 89.32142205 38.8039856 78.24552917 C33.13404426 67.53336828 27.77765612 56.66105307 22.375 45.8125 C21.26451266 43.58649388 20.15383663 41.36058187 19.04296875 39.13476562 C16.35981099 33.75758951 13.67895422 28.37927149 11 23 C10.67 24.32 10.34 25.64 10 27 C9.01 24.69 8.02 22.38 7 20 C1.62302982 25.86000769 -3.54779819 31.83392865 -8.55078125 38.015625 C-11.318107 41.38761363 -14.1514694 44.69665446 -17 48 C-20.55467214 52.12455611 -24.0679263 56.27208312 -27.5 60.5 C-31.88712902 65.90076172 -36.41223412 71.174677 -40.94921875 76.44921875 C-47.17522367 83.68816124 -53.3608624 90.95865909 -59.375 98.375 C-63.53859227 103.49368154 -67.85515814 108.46772641 -72.19165039 113.43945312 C-76.19981178 118.045751 -80.07968495 122.73465252 -83.921875 127.48046875 C-87.17052294 131.41914905 -90.57212267 135.21719259 -94 139 C-92.96903198 137.95936401 -92.96903198 137.95936401 -91.91723633 136.89770508 C-89 135 -89 135 -85.8894043 135.37768555 C-84.71289307 135.7931665 -83.53638184 136.20864746 -82.32421875 136.63671875 C-81.66275345 136.86247589 -81.00128815 137.08823303 -80.31977844 137.3208313 C-78.09978937 138.08558092 -75.89456862 138.8862946 -73.6875 139.6875 C-72.11338942 140.23809658 -70.53849746 140.78646358 -68.96289062 141.33276367 C-64.58889141 142.85704104 -60.22715221 144.41407255 -55.86663818 145.97644043 C-50.79887876 147.78593061 -45.72090822 149.56642546 -40.64453125 151.3515625 C-31.54361163 154.55635909 -22.45155408 157.78535974 -13.36360168 161.02671814 C-3.92280828 164.39049169 5.53654203 167.70061669 15 171 C15 171.66 15 172.32 15 173 C9.95482825 173.18190951 5.81524934 172.62003442 0.96875 171.234375 C-0.35659913 170.86331847 -1.68212463 170.49289138 -3.0078125 170.12304688 C-4.00699707 169.84013794 -4.00699707 169.84013794 -5.02636719 169.55151367 C-8.05849736 168.70421257 -11.10685655 167.92316802 -14.15625 167.140625 C-15.94252808 166.68030884 -15.94252808 166.68030884 -17.76489258 166.21069336 C-18.99747803 165.89366455 -20.23006348 165.57663574 -21.5 165.25 C-22.84075987 164.90445948 -24.18149828 164.55883568 -25.5222168 164.21313477 C-31.68498962 162.62441347 -37.84845524 161.03841263 -44.01293945 159.4563446 C-46.63262597 158.78379732 -49.25203216 158.11016228 -51.87139893 157.43637085 C-53.80251953 156.94006502 -55.73402264 156.44524832 -57.66552734 155.95043945 C-63.97757433 154.32617599 -70.27333711 152.65984482 -76.55078125 150.90625 C-77.74405029 150.5750415 -78.93731934 150.24383301 -80.16674805 149.90258789 C-82.41182795 149.27605765 -84.65437459 148.64035064 -86.89379883 147.99389648 C-88.38882935 147.57732788 -88.38882935 147.57732788 -89.9140625 147.15234375 C-90.7798291 146.90476318 -91.6455957 146.65718262 -92.53759766 146.40209961 C-96.07404983 145.82461233 -98.81472562 146.40736281 -102 148 C-100.67626016 145.20724123 -99.19609726 142.73506127 -97.3828125 140.234375 C-96.60562866 139.15941772 -96.60562866 139.15941772 -95.81274414 138.06274414 C-95.25578857 137.29953857 -94.69883301 136.53633301 -94.125 135.75 C-93.54419678 134.95005615 -92.96339355 134.1501123 -92.36499023 133.32592773 C-88.15754717 127.54676167 -83.89002807 121.8145923 -79.58789062 116.10571289 C-73.92555314 108.58945819 -68.35631622 101.00513684 -62.78222656 93.42333984 C-59.85769254 89.44677482 -56.92864567 85.47353729 -54 81.5 C-52.83331112 79.91668304 -51.66664447 78.33334969 -50.5 76.75 C-43.5 67.25 -36.5 57.75 -29.5 48.25 C-28.92185547 47.46536377 -28.34371094 46.68072754 -27.74804688 45.87231445 C-26.58793509 44.29790018 -25.42777924 42.72351837 -24.26757812 41.14916992 C-21.25024922 37.05464781 -18.23381688 32.95946939 -15.21875 28.86328125 C-14.28482422 27.59484375 -14.28482422 27.59484375 -13.33203125 26.30078125 C-12.15205609 24.69812842 -10.97234764 23.09527917 -9.79296875 21.4921875 C-9.25285156 20.75871094 -8.71273437 20.02523437 -8.15625 19.26953125 C-7.37725342 18.20532959 -7.37725342 18.20532959 -6.58251953 17.11962891 C-5.49764402 15.6665451 -4.3877091 14.23193433 -3.25732422 12.81396484 C-2.7057666 12.11609863 -2.15420898 11.41823242 -1.5859375 10.69921875 C-1.08626465 10.08264404 -0.5865918 9.46606934 -0.07177734 8.83081055 C1.2167086 6.62981828 1.23114385 5.49893228 0.875 3 C0.58625 2.01 0.2975 1.02 0 0 Z " fill="#DAD335" transform="translate(131,19)"/>
<path d="M0 0 C2.72837037 3.29013834 4.28835124 6.67508516 5.94140625 10.60546875 C6.22097672 11.26479401 6.50054718 11.92411926 6.78858948 12.60342407 C7.39708916 14.03947044 8.0032129 15.47652537 8.60723877 16.91445923 C10.2663118 20.86221774 11.94445765 24.80186351 13.62109375 28.7421875 C13.97449829 29.5737587 14.32790283 30.4053299 14.6920166 31.26210022 C18.7583717 40.81312215 22.94019853 50.31293409 27.125 59.8125 C28.65804529 63.29535602 30.19052249 66.77846165 31.72265625 70.26171875 C32.09194244 71.1012056 32.46122864 71.94069244 32.84170532 72.80561829 C36.61983863 81.40001398 40.35246718 90.01369844 44.07836914 98.63085938 C48.72119944 109.36616771 53.38910816 120.09046335 58.0625 130.8125 C58.43061798 131.65742004 58.79873596 132.50234009 59.17800903 133.37286377 C60.23418706 135.79691486 61.29083917 138.22075871 62.34765625 140.64453125 C62.65755493 141.35582687 62.96745361 142.0671225 63.28674316 142.79997253 C63.58536255 143.4844899 63.88398193 144.16900726 64.19165039 144.87426758 C64.48210236 145.54253571 64.77255432 146.21080383 65.07180786 146.89932251 C65.73959813 148.41066043 66.42306292 149.91510789 67.11642456 151.41488647 C67.48333405 152.21343048 67.85024353 153.01197449 68.22827148 153.8347168 C68.56656479 154.55982956 68.90485809 155.28494232 69.25340271 156.0320282 C70 158 70 158 70 161 C65.71 160.67 61.42 160.34 57 160 C46.47759109 131.17066841 36.06550425 102.30302773 25.72531128 73.40786743 C21.35497372 61.19528765 16.97704268 48.985434 12.59902954 36.77560425 C10.56186085 31.09398297 8.52507994 25.41222268 6.48828125 19.73046875 C5.80639842 17.82836845 5.12451387 15.92626876 4.44262695 14.02416992 C3.9617513 12.68277995 3.48087565 11.34138997 3 10 C3.09448425 10.6177832 3.18896851 11.23556641 3.28631592 11.87207031 C3.39647034 12.68256836 3.50662476 13.49306641 3.62011719 14.328125 C3.79278107 15.5332373 3.79278107 15.5332373 3.96893311 16.76269531 C4 19 4 19 2.078125 21.75 C1.14484375 22.4925 0.2115625 23.235 -0.75 24 C-2.27367187 25.25296875 -2.27367187 25.25296875 -3.828125 26.53125 C-4.88479561 27.35496399 -5.94207322 28.17789999 -7 29 C-8.8356157 30.4972061 -10.66902668 31.99712016 -12.5 33.5 C-13.4075 34.2321875 -14.315 34.964375 -15.25 35.71875 C-18.08099578 38.06718968 -20.79383598 40.50909902 -23.5 43 C-27.94727112 47.09351091 -32.54717463 50.92442499 -37.25 54.71875 C-40.08099578 57.06718968 -42.79383598 59.50909902 -45.5 62 C-49.9698512 66.11378909 -54.59044893 69.97087297 -59.31640625 73.78515625 C-62.79058353 76.65249034 -66.10137818 79.68083831 -69.4296875 82.71484375 C-73.82962481 86.62664212 -78.41246931 90.31078806 -83 94 C-82.1028125 93.505 -82.1028125 93.505 -81.1875 93 C-79 92 -79 92 -76 92 C-74.125 92.91113281 -74.125 92.91113281 -72 94.203125 C-71.20561523 94.68241455 -70.41123047 95.1617041 -69.59277344 95.65551758 C-68.7371582 96.18169678 -67.88154297 96.70787598 -67 97.25 C-65.65856934 98.06537231 -65.65856934 98.06537231 -64.29003906 98.8972168 C-56.84998293 103.43627956 -49.4758997 108.07836741 -42.12109375 112.75390625 C-36.03835884 116.61810317 -29.92517556 120.43340833 -23.8125 124.25 C-22.74161133 124.91878174 -21.67072266 125.58756348 -20.56738281 126.27661133 C-18.04515881 127.85145433 -15.52271095 129.42593719 -13 131 C-20.60269794 123.31555262 -28.63807223 116.20507385 -37.046875 109.41796875 C-41.0418361 106.14696224 -44.9425944 102.77121399 -48.84741211 99.39355469 C-53.22338349 95.62344964 -57.70968934 92.02509205 -62.3046875 88.5234375 C-62.86414063 88.02070313 -63.42359375 87.51796875 -64 87 C-64 86.34 -64 85.68 -64 85 C-62.39850114 84.32694982 -60.79368971 83.66177773 -59.1875 83 C-57.84751953 82.443125 -57.84751953 82.443125 -56.48046875 81.875 C-54 81 -54 81 -51 81 C-49.3633646 82.8381614 -47.93666354 84.63866633 -46.5 86.625 C-45.60373705 87.8274737 -44.70657078 89.02927454 -43.80859375 90.23046875 C-43.11419189 91.16705322 -43.11419189 91.16705322 -42.40576172 92.12255859 C-40.17556296 95.10106302 -37.87024836 98.01892569 -35.5625 100.9375 C-32.68065263 104.58818307 -29.80686986 108.24396233 -26.96484375 111.92578125 C-26.46847412 112.56588135 -25.97210449 113.20598145 -25.46069336 113.86547852 C-24.50871717 115.09367577 -23.56013614 116.32451448 -22.61547852 117.55834961 C-20.53782496 120.23084196 -18.84465875 122.10356083 -16 124 C-15.90323975 123.35579102 -15.80647949 122.71158203 -15.70678711 122.04785156 C-14.75524176 117.9445382 -13.23587627 114.14716008 -11.69140625 110.234375 C-11.36462387 109.4003717 -11.03784149 108.56636841 -10.70115662 107.70709229 C-10.01151579 105.95133632 -9.31966094 104.19644858 -8.62573242 102.44238281 C-7.56194189 99.74858673 -6.510158 97.0503029 -5.45898438 94.3515625 C-4.78718326 92.64554769 -4.11468156 90.93980856 -3.44140625 89.234375 C-3.12675919 88.42401794 -2.81211212 87.61366089 -2.4879303 86.77874756 C-0.22907172 81.11453586 -0.22907172 81.11453586 2 80 C2.18710261 86.71736739 1.53052894 92.84109889 0.28515625 99.43359375 C0.10995956 100.39274185 -0.06523712 101.35188995 -0.2457428 102.34010315 C-0.61443767 104.35006441 -0.98692223 106.35933391 -1.36303711 108.36791992 C-1.94010774 111.4514342 -2.50518474 114.53696738 -3.06835938 117.62304688 C-3.42899566 119.58085673 -3.79029981 121.53854371 -4.15234375 123.49609375 C-4.40708717 124.88192909 -4.40708717 124.88192909 -4.66697693 126.29576111 C-4.82706741 127.14747391 -4.9871579 127.99918671 -5.15209961 128.87670898 C-5.29199814 129.62677719 -5.43189667 130.3768454 -5.57603455 131.14964294 C-6 133 -6 133 -7 135 C-4.69 136.32 -2.38 137.64 0 139 C-3.97943553 140.32647851 -5.01805788 139.30398907 -8.72265625 137.45703125 C-9.88740479 136.8839624 -11.05215332 136.31089355 -12.25219727 135.72045898 C-12.87232697 135.40986542 -13.49245667 135.09927185 -14.13137817 134.77926636 C-17.42142015 133.13219166 -20.7276502 131.5180949 -24.03125 129.8984375 C-24.70398453 129.56744553 -25.37671906 129.23645355 -26.06983948 128.89543152 C-32.35466935 125.80857311 -38.69674752 122.85369615 -45.0625 119.9375 C-46.09971191 119.46111084 -47.13692383 118.98472168 -48.20556641 118.49389648 C-50.33761647 117.51502764 -52.4699444 116.53676381 -54.60253906 115.55908203 C-60.25574086 112.96484901 -65.90421055 110.36047136 -71.54904175 107.74807739 C-73.39970123 106.89247524 -75.25170771 106.03983839 -77.10375977 105.18725586 C-78.22322998 104.6691333 -79.3427002 104.15101074 -80.49609375 103.6171875 C-81.98387329 102.93052002 -81.98387329 102.93052002 -83.50170898 102.22998047 C-86 101 -86 101 -89 99 C-90.65 100.65 -92.3 102.3 -94 104 C-94.66 103.67 -95.32 103.34 -96 103 C-95.48936508 102.49158569 -94.97873016 101.98317139 -94.45262146 101.45935059 C-89.61063345 96.63750628 -84.77113263 91.81317798 -79.93432522 86.98613739 C-77.44835902 84.5053614 -74.9614835 82.02551227 -72.47241211 79.54785156 C-69.60247167 76.69098377 -66.73670258 73.82996269 -63.87109375 70.96875 C-62.98852402 70.09134155 -62.10595428 69.21393311 -61.19664001 68.30993652 C-56.8689986 63.98268408 -52.71404376 59.58979409 -48.72572327 54.94934082 C-45.54016128 51.35099679 -42.1038107 48.00244182 -38.6875 44.625 C-37.91494873 43.85623535 -37.14239746 43.0874707 -36.34643555 42.29541016 C-33.07623964 39.0414017 -29.8000651 35.79343734 -26.52441406 32.54492188 C-24.11834715 30.15704648 -21.71536962 27.76609207 -19.3125 25.375 C-18.58313232 24.65393066 -17.85376465 23.93286133 -17.10229492 23.18994141 C-13.04817246 19.15501504 -9.18627213 15.02432505 -5.47705078 10.66918945 C-4 9 -4 9 -1.5625 6.8125 C0.26438905 5.04862157 0.26438905 5.04862157 0.25 2.25 C0.1675 1.5075 0.085 0.765 0 0 Z " fill="#DAD232" transform="translate(142,46)"/>
<path d="M0 0 C2.07069869 2.07069869 2.56032862 3.14017715 3.50195312 5.83984375 C3.78478149 6.64131332 4.06760986 7.4427829 4.35900879 8.26853943 C4.81551819 9.58967491 4.81551819 9.58967491 5.28125 10.9375 C5.60653687 11.86341446 5.93182373 12.78932892 6.26696777 13.74330139 C6.97566909 15.76218519 7.68181446 17.78196758 8.38574219 19.80252075 C10.29729053 25.28790849 12.22837188 30.7664288 14.15625 36.24609375 C14.75614746 37.9537516 14.75614746 37.9537516 15.36816406 39.69590759 C19.15711734 50.47297485 23.01060144 61.22628185 26.88580322 71.97259521 C28.00036602 75.06351505 29.11331857 78.15501121 30.22607422 81.24658203 C33.69167893 90.86843069 37.17223545 100.48456732 40.68341064 110.08988953 C42.28376619 114.46856406 43.87991866 118.8487664 45.47607422 123.22897339 C46.60296487 126.31466269 47.73692009 129.39769463 48.87109375 132.48071289 C49.55243486 134.34899293 50.23344331 136.21739434 50.9140625 138.0859375 C51.22872467 138.93448807 51.54338684 139.78303864 51.86758423 140.65730286 C52.15056366 141.43861069 52.43354309 142.21991852 52.72509766 143.02490234 C53.09666489 144.03778824 53.09666489 144.03778824 53.47573853 145.07113647 C54 147 54 147 54 151 C52.228373 150.96691359 50.45739906 150.89743679 48.6875 150.8125 C47.70136719 150.77769531 46.71523437 150.74289063 45.69921875 150.70703125 C43 150 43 150 41.43432617 147.78857422 C40.03930832 145.07642207 39.14786499 142.61374582 38.3515625 139.67578125 C37.93076416 138.14642944 37.93076416 138.14642944 37.50146484 136.58618164 C37.21223145 135.5058667 36.92299805 134.42555176 36.625 133.3125 C36.31900879 132.19415771 36.01301758 131.07581543 35.69775391 129.92358398 C35.0800914 127.66534644 34.46530857 125.40631914 33.85351562 123.14648438 C32.7141322 118.9461487 31.54539057 114.75427413 30.375 110.5625 C29.9762511 109.12638851 29.57781049 107.69019138 29.1796875 106.25390625 C27.95457066 101.8355356 26.72741247 97.4177334 25.5 93 C24.27258753 88.5822666 23.04542934 84.1644644 21.8203125 79.74609375 C18.5460028 67.94106194 15.24371171 56.14392537 11.93798828 44.34765625 C10.31198868 38.54450517 8.68732454 32.74098017 7.0625 26.9375 C6.47005786 24.82161297 5.87761049 22.7057274 5.28515625 20.58984375 C4.85677083 19.05989583 4.42838542 17.52994792 4 16 C4.495 19.96 4.495 19.96 5 24 C-5.67105664 31.92245114 -16.49994134 39.59828605 -27.40625 47.19287109 C-38.0396928 54.60145012 -48.65278773 62.0396944 -59.25 69.5 C-60.25003052 70.20213623 -60.25003052 70.20213623 -61.27026367 70.91845703 C-65.9134785 74.19222553 -70.47127752 77.56978456 -75 81 C-74.03787598 80.45255127 -73.07575195 79.90510254 -72.08447266 79.34106445 C-62.97368247 74.17575406 -53.78729261 69.18165555 -44.51547241 64.31204224 C-40.82374712 62.37251665 -37.13633322 60.42483586 -33.44921875 58.4765625 C-32.72388443 58.09333328 -31.99855011 57.71010406 -31.25123596 57.31526184 C-24.87288376 53.94100902 -18.52128102 50.51982074 -12.1875 47.0625 C-11.31206543 46.58514404 -10.43663086 46.10778809 -9.53466797 45.6159668 C-6.3433593 43.86764282 -3.19412345 42.12214804 -0.11328125 40.18359375 C2 39 2 39 5 39 C5 43.29 5 47.58 5 52 C-2.77965618 54.81954065 -10.56015376 57.63672472 -18.3421154 60.44989491 C-21.95646421 61.75658124 -25.57044993 63.06425263 -29.18359375 64.37426758 C-32.67757236 65.64103418 -36.17252023 66.90509254 -39.66812515 68.16736412 C-40.99434616 68.64678467 -42.32022904 69.12714174 -43.64574814 69.60849953 C-51.03988575 72.2929043 -58.42940755 74.85673884 -66 77 C-66 77.66 -66 78.32 -66 79 C-65.43410156 79.24621094 -64.86820313 79.49242187 -64.28515625 79.74609375 C-61.60751742 81.21536224 -59.66956388 82.97752435 -57.4375 85.0625 C-53.95307272 88.25698224 -50.42430765 91.33831892 -46.75 94.3125 C-40.68522732 99.22573357 -34.77212352 104.30447208 -28.85986328 109.39892578 C-25.61971751 112.18822428 -22.37188795 114.96855612 -19.125 117.75 C-17.94007121 118.76558655 -16.75517221 119.78120786 -15.5703125 120.796875 C-14.72210938 121.52390625 -13.87390625 122.2509375 -13 123 C-13.99 123.495 -13.99 123.495 -15 124 C-17.01757813 122.99047852 -17.01757813 122.99047852 -19.53125 121.37890625 C-20.47436035 120.78094238 -21.4174707 120.18297852 -22.38916016 119.56689453 C-23.92902588 118.57471924 -23.92902588 118.57471924 -25.5 117.5625 C-27.68424515 116.17475657 -29.86916486 114.78807443 -32.0546875 113.40234375 C-32.62109955 113.04188965 -33.1875116 112.68143555 -33.77108765 112.31005859 C-40.0115596 108.34262948 -46.31777814 104.4852406 -52.625 100.625 C-61.48689494 95.18829883 -70.3008352 89.69399878 -79 84 C-80.98 85.32 -82.96 86.64 -85 88 C-85.66 87.67 -86.32 87.34 -87 87 C-80.71867638 81.18035974 -74.34904488 75.59447736 -67.68359375 70.21484375 C-65.05291443 68.04367173 -62.52057576 65.79758643 -60 63.5 C-56.60401318 60.40444804 -53.13828469 57.44848793 -49.5625 54.5625 C-44.788597 50.70174863 -40.26611572 46.62562925 -35.75 42.46875 C-32.18815771 39.27118704 -28.47434167 36.28611657 -24.75 33.28125 C-20.97582598 30.15040109 -17.39572209 26.82473547 -13.7890625 23.50390625 C-10.0032813 20.10518671 -6.07864278 16.9075747 -2.1171875 13.71484375 C-0.13793226 12.17273924 -0.13793226 12.17273924 1 11 C0.91015699 9.14227838 0.75388139 7.28752015 0.5625 5.4375 C0.40974609 3.91962891 0.40974609 3.91962891 0.25390625 2.37109375 C0.17011719 1.58863281 0.08632812 0.80617187 0 0 Z " fill="#FDFDF7" transform="translate(144,54)"/>
<path d="M0 0 C2.1892074 1.86082629 3.73389911 3.95871421 5.25 6.375 C5.60578125 6.93960937 5.9615625 7.50421875 6.328125 8.0859375 C7.27131468 10.77293135 6.77099743 12.25946125 6 15 C4.39282227 17.79223633 4.39282227 17.79223633 2.31640625 20.83203125 C1.94549866 21.38068344 1.57459106 21.92933563 1.19244385 22.49461365 C0.39995224 23.66538304 -0.39610151 24.83374785 -1.19540405 25.99987793 C-3.28729433 29.05262638 -5.35282113 32.12315599 -7.421875 35.19140625 C-7.82782394 35.7918576 -8.23377289 36.39230896 -8.65202332 37.01095581 C-11.59252164 41.36809604 -14.43869565 45.77004148 -17.1875 50.25 C-22.98283799 59.66710885 -29.07410116 68.89056292 -35.13037109 78.14111328 C-37.97064884 82.48423843 -40.79841149 86.83545786 -43.625 91.1875 C-44.41741089 92.40711426 -44.41741089 92.40711426 -45.22583008 93.65136719 C-46.28635925 95.28365003 -47.34682505 96.91597406 -48.40722656 98.54833984 C-51.10404754 102.69939383 -53.80209214 106.84965238 -56.5 111 C-57.58333905 112.66666295 -58.66667239 114.33332961 -59.75 116 C-61.91666667 119.33333333 -64.08333333 122.66666667 -66.25 126 C-66.78665283 126.82564453 -67.32330566 127.65128906 -67.8762207 128.50195312 C-68.95539342 130.16216892 -70.03465718 131.82232555 -71.11401367 133.48242188 C-73.88676856 137.74729664 -76.65774805 142.01330895 -79.42578125 146.28125 C-85.22870306 155.22517241 -91.04861104 164.15382668 -97 173 C-95.42238328 174.57761672 -93.60308236 174.52321401 -91.42822266 174.90454102 C-89.95222595 175.16648254 -89.95222595 175.16648254 -88.44641113 175.43371582 C-87.36323608 175.62187866 -86.28006104 175.8100415 -85.1640625 176.00390625 C-84.03979858 176.20262329 -82.91553467 176.40134033 -81.75720215 176.6060791 C-79.32298274 177.03607819 -76.88845967 177.46436094 -74.45367432 177.8911438 C-67.99884364 179.02299526 -61.54634266 180.1679699 -55.09375 181.3125 C-53.79688263 181.54228043 -52.50001526 181.77206085 -51.16384888 182.00880432 C-40.13930278 183.96600427 -29.12942954 185.99559074 -18.125 188.0625 C0.22458609 191.50547856 18.59485298 194.82780959 36.97216797 198.11938477 C38.52115784 198.39699142 38.52115784 198.39699142 40.10144043 198.6802063 C42.03681144 199.02690519 43.97227164 199.37310675 45.90783691 199.71871948 C49.94674936 200.44181084 53.98135324 201.16986926 58 202 C58 202.33 58 202.66 58 203 C48.34791156 203.24933108 39.00799495 202.49272257 29.4375 201.3125 C27.91864032 201.13122415 26.3996751 200.95083085 24.88061523 200.77124023 C21.62548266 200.38601782 18.37075365 199.99759429 15.11621094 199.60742188 C7.18725332 198.66126008 -0.74802895 197.77038521 -8.68273926 196.87402344 C-12.37644448 196.45631901 -16.06986909 196.03616095 -19.76330566 195.61608887 C-27.51953219 194.73404789 -35.27612974 193.85537315 -43.0332489 192.98121643 C-47.00517298 192.5334816 -50.97697178 192.08464108 -54.94876099 191.63571167 C-56.82603844 191.42383553 -58.70337614 191.21249237 -60.58078003 191.0017395 C-70.3038101 189.9101372 -80.01236429 188.77539004 -89.70214844 187.41723633 C-95.11774608 186.73206781 -100.55371219 186.34900327 -106 186 C-106.433125 187.2065625 -106.433125 187.2065625 -106.875 188.4375 C-108 191 -108 191 -110 192 C-108.37741852 185.85883719 -105.10248156 180.77767701 -101.875 175.375 C-100.60034343 173.21686539 -99.3269566 171.05798044 -98.0546875 168.8984375 C-97.38920898 167.77018555 -96.72373047 166.64193359 -96.03808594 165.47949219 C-92.97813757 160.27095257 -89.99368379 155.01929386 -87.00640869 149.76885986 C-81.72261363 140.48208293 -76.39901089 131.22045375 -71 122 C-65.9681021 113.4048271 -60.99610876 104.77687778 -56.0625 96.125 C-49.03396493 83.79974804 -41.95759566 71.50277933 -34.85888672 59.21777344 C-32.36217754 54.89591542 -29.86804904 50.5725713 -27.37426758 46.24902344 C-26.1336321 44.09839469 -24.89258982 41.94800055 -23.65112305 39.79785156 C-20.72107617 34.72244713 -17.79454559 29.64510509 -14.87988281 24.56085205 C-13.50303474 22.1595977 -12.12427308 19.75944474 -10.74536133 17.359375 C-9.77303297 15.66513397 -8.8034746 13.96930419 -7.83398438 12.2734375 C-7.24423828 11.24734375 -6.65449219 10.22125 -6.046875 9.1640625 C-5.52963867 8.26123535 -5.01240234 7.3584082 -4.47949219 6.42822266 C-3.1032693 4.16949117 -1.62664684 2.08334522 0 0 Z " fill="#DBD338" transform="translate(120,0)"/>
<path d="M0 0 C1.90389849 2.85584773 2.69462177 4.9311762 3.625 8.1875 C4.01558594 9.53908203 4.01558594 9.53908203 4.4140625 10.91796875 C4.60742188 11.60503906 4.80078125 12.29210938 5 13 C4.35933594 13.6290625 3.71867187 14.258125 3.05859375 14.90625 C1.76115234 16.19015625 1.76115234 16.19015625 0.4375 17.5 C-0.40941406 18.3353125 -1.25632812 19.170625 -2.12890625 20.03125 C-4.23925665 22.16460381 -6.20880894 24.38262534 -8.15991211 26.66210938 C-12.02537314 31.09486081 -16.13149416 35.24156332 -20.3125 39.375 C-21.08505127 40.14376465 -21.85760254 40.9125293 -22.65356445 41.70458984 C-25.92376036 44.9585983 -29.1999349 48.20656266 -32.47558594 51.45507812 C-34.88165285 53.84295352 -37.28463038 56.23390793 -39.6875 58.625 C-40.41686768 59.34606934 -41.14623535 60.06713867 -41.89770508 60.81005859 C-45.21290434 64.10956053 -48.43017196 67.43900518 -51.48461914 70.98242188 C-55.3063259 75.41567498 -59.40715458 79.53332939 -63.55859375 83.65625 C-64.74232323 84.83785706 -64.74232323 84.83785706 -65.94996643 86.04333496 C-68.44345012 88.53127102 -70.94040784 91.01568624 -73.4375 93.5 C-75.14020587 95.1976841 -76.84268207 96.89559858 -78.54492188 98.59375 C-82.69396412 102.7318328 -86.84585576 106.86703935 -91 111 C-88.69 109.35 -86.38 107.7 -84 106 C-84 106.66 -84 107.32 -84 108 C-82.73494629 108.39372803 -82.73494629 108.39372803 -81.44433594 108.79541016 C-77.80532007 110.06808554 -74.36233869 111.61214452 -70.890625 113.2734375 C-69.87704422 113.75315758 -69.87704422 113.75315758 -68.84298706 114.24256897 C-67.39547523 114.92800153 -65.94866545 115.61491832 -64.50250244 116.30319214 C-60.67436626 118.12473354 -56.84069217 119.93456088 -53.0078125 121.74609375 C-51.85531509 122.29134453 -51.85531509 122.29134453 -50.67953491 122.84761047 C-33.21484629 131.10542006 -15.63678272 139.11719418 2 147 C0.02 145.68 -1.96 144.36 -4 143 C-3.81824219 142.25153809 -3.63648438 141.50307617 -3.44921875 140.73193359 C-1.31613016 131.74698157 0.39137003 122.71543501 2 113.625 C2.49798039 110.82515711 2.99817062 108.02571799 3.5 105.2265625 C3.62198257 104.54411972 3.74396515 103.86167694 3.86964417 103.15855408 C4.95130847 97.15792756 6.15609874 91.18568942 7.39428711 85.21557617 C7.93140745 82.36414047 8.2994006 79.5747225 8.5625 76.6875 C9 73 9 73 11 71 C11.08496374 84.31688696 10.78126441 97.61176953 10.42724609 110.9230957 C10.07557068 124.2855652 9.93860094 137.63291305 10 151 C12.31 151.99 14.62 152.98 17 154 C13.58867184 155.13710939 12.92063721 154.87816156 9.64770508 153.73095703 C8.76005966 153.42476944 7.87241425 153.11858185 6.95787048 152.80311584 C5.50339256 152.28569069 5.50339256 152.28569069 4.01953125 151.7578125 C2.48861595 151.22509987 2.48861595 151.22509987 0.92677307 150.68162537 C-2.44776727 149.5047942 -5.81757142 148.31496626 -9.1875 147.125 C-11.52301836 146.3077793 -13.85879616 145.49129968 -16.19482422 144.67553711 C-28.06704115 140.52300022 -39.92253424 136.32301912 -51.77734375 132.12109375 C-52.86836899 131.73441528 -53.95939423 131.34773682 -55.08348083 130.94934082 C-60.28706924 129.10412065 -65.48911377 127.25475146 -70.68823242 125.39697266 C-72.12490013 124.88506126 -72.12490013 124.88506126 -73.59059143 124.36280823 C-75.35340252 123.73461138 -77.11554809 123.10454173 -78.8768158 122.47203064 C-81.24516232 121.62919014 -83.62066899 120.81125869 -86 120 C-87.33354523 119.52613358 -87.33354523 119.52613358 -88.69403076 119.04269409 C-90.02183563 118.59798264 -90.02183563 118.59798264 -91.37646484 118.14428711 C-92.17547211 117.86951035 -92.97447937 117.59473358 -93.79769897 117.31163025 C-96.02046097 116.79209954 -96.02046097 116.79209954 -97.95303345 117.91676331 C-99.84350679 119.42356562 -99.84350679 119.42356562 -102 122 C-100.49993609 118.55220914 -98.49590738 116.17639467 -95.9375 113.4375 C-91.93843486 109.07546239 -88.17116634 104.58322123 -84.44921875 99.984375 C-81.681893 96.61238637 -78.8485306 93.30334554 -76 90 C-72.44532786 85.87544389 -68.9320737 81.72791688 -65.5 77.5 C-61.11287098 72.09923828 -56.58776588 66.825323 -52.05078125 61.55078125 C-45.82477633 54.31183876 -39.6391376 47.04134091 -33.625 39.625 C-29.46205461 34.50711373 -25.14595219 29.53405066 -20.81054688 24.56274414 C-16.78185379 19.93223248 -12.87475068 15.22300546 -9.01171875 10.453125 C-6.09264024 6.89354965 -3.06234096 3.43651767 0 0 Z " fill="#FDFDF6" transform="translate(138,38)"/>
<path d="M0 0 C-2.64315763 8.2770161 -5.78444967 16.34566024 -8.9375 24.4375 C-9.46828263 25.80526728 -9.99888271 27.17310541 -10.52929688 28.54101562 C-13.31226141 35.71031877 -16.12238393 42.8680552 -19 50 C-22.02959848 48.67216283 -23.825697 47.3422999 -25.8828125 44.76171875 C-26.66652222 43.788396 -26.66652222 43.788396 -27.46606445 42.79541016 C-28.01351318 42.0997998 -28.56096191 41.40418945 -29.125 40.6875 C-29.69758545 39.97126465 -30.2701709 39.2550293 -30.86010742 38.51708984 C-35.20767936 33.05977004 -39.47427036 27.54087299 -43.69921875 21.98828125 C-46.58847812 18.23567783 -49.58097379 14.57317196 -52.6015625 10.92578125 C-54 9 -54 9 -54 7 C-41.45971266 4.92343629 -28.91496799 2.91451565 -16.3125 1.25 C-15.36431396 1.12262451 -14.41612793 0.99524902 -13.43920898 0.86401367 C-8.92604506 0.28186734 -4.56241949 -0.15132403 0 0 Z " fill="#FDFDF6" transform="translate(145,120)"/>
<path d="M0 0 C2.95517226 2.55964971 4.39451748 5.43292898 6.11938477 8.9140625 C6.41587418 9.50820953 6.71236359 10.10235657 7.01783752 10.71450806 C7.99796039 12.68194288 8.96958333 14.65345402 9.94140625 16.625 C10.63002182 18.01038374 11.31923629 19.39546993 12.00901794 20.78027344 C13.83021106 24.43979406 15.64455219 28.10266682 17.45709229 31.76647949 C20.6732463 38.26484733 23.90091507 44.75750638 27.12890625 51.25 C27.477327 51.95135071 27.82574776 52.65270142 28.18472672 53.37530518 C32.48798889 62.03376499 36.86036326 70.64694764 41.40797424 79.18017578 C47.55262683 90.74415069 53.28757305 102.52161451 59.11376953 114.24804688 C65.59761603 127.29051565 72.16933906 140.27100376 79.01046753 153.12998962 C85 164.44895914 85 164.44895914 85 167 C80.71 167 76.42 167 72 167 C64.72048143 151.33225862 57.72272683 135.55709953 50.88771057 119.69136047 C47.12469193 110.96076881 43.33078285 102.24359547 39.53875732 93.52557373 C38.24764387 90.55708285 36.95703226 87.58837419 35.66650391 84.61962891 C31.55984298 75.17415369 27.44825397 65.73087216 23.32421875 56.29296875 C16.9822022 41.77776512 10.64103045 27.26256608 4.4375 12.6875 C3.97786865 11.61338867 3.5182373 10.53927734 3.04467773 9.43261719 C2.63677002 8.4687207 2.2288623 7.50482422 1.80859375 6.51171875 C1.45595459 5.68115967 1.10331543 4.85060059 0.73999023 3.99487305 C0 2 0 2 0 0 Z " fill="#FDFDF8" transform="translate(141,41)"/>
<path d="M0 0 C9.65208844 -0.24933108 18.99200505 0.50727743 28.5625 1.6875 C30.08135968 1.86877585 31.6003249 2.04916915 33.11938477 2.22875977 C36.37451734 2.61398218 39.62924635 3.00240571 42.88378906 3.39257812 C50.81045827 4.33846684 58.74345095 5.22906488 66.6758728 6.12515259 C69.45957884 6.43999718 72.24312086 6.75625363 75.02661133 7.07299805 C83.4813618 8.03504911 91.9364125 8.99418023 100.39277649 9.94195557 C125.62056444 12.76977168 150.81854313 15.78512599 176 19 C176 19.33 176 19.66 176 20 C161.06140783 20.24058684 146.27612363 19.95785858 131.37109375 18.92236328 C116.94843695 17.93525476 102.51089824 17.27528178 88.07104874 16.59739685 C67.55753576 15.63269162 47.05195154 14.63887539 26.5625 13.24267578 C22.52119355 12.96738394 18.47939499 12.70007471 14.4375 12.43359375 C7.29126923 11.96159549 0.14548986 11.48309725 -7 11 C-5.549889 7.06584235 -4.06817237 4.87022576 -1 2 C-0.67 1.34 -0.34 0.68 0 0 Z " fill="#FDFDF8" transform="translate(14,186)"/>
<path d="M0 0 C2.36557373 2.13300328 3.62967528 3.95949399 4.75 6.9375 C5.14445312 7.94103516 5.14445312 7.94103516 5.546875 8.96484375 C6.24312847 12.0919822 5.49707483 14.19863575 3.82348633 16.89672852 C3.33130615 17.55084717 2.83912598 18.20496582 2.33203125 18.87890625 C1.77580078 19.62527344 1.21957031 20.37164062 0.64648438 21.140625 C0.04126953 21.93984375 -0.56394531 22.7390625 -1.1875 23.5625 C-2.47282245 25.28242789 -3.75797403 27.00248349 -5.04296875 28.72265625 C-5.70216309 29.60066895 -6.36135742 30.47868164 -7.04052734 31.38330078 C-10.05151726 35.40420657 -13.02498749 39.45244717 -16 43.5 C-17.1664609 45.08348493 -18.33312826 46.6668178 -19.5 48.25 C-20.0775 49.03375 -20.655 49.8175 -21.25 50.625 C-32.33333333 65.66666667 -43.41666667 80.70833333 -54.5 95.75 C-55.07806396 96.53455566 -55.65612793 97.31911133 -56.25170898 98.12744141 C-57.41252343 99.70275139 -58.57349223 101.27794765 -59.73461914 102.85302734 C-62.74213315 106.93317488 -65.74653234 111.01556415 -68.74609375 115.1015625 C-69.36419922 115.94267578 -69.98230469 116.78378906 -70.61914062 117.65039062 C-71.78682124 119.23948981 -72.9535689 120.82927521 -74.11914062 122.41992188 C-77.98987499 127.68467822 -81.96514817 132.86005172 -86 138 C-86.66 137.67 -87.32 137.34 -88 137 C-86.67691649 133.41377875 -85.08572507 130.37015891 -82.98046875 127.18359375 C-82.07530518 125.80554565 -82.07530518 125.80554565 -81.15185547 124.3996582 C-80.50361816 123.422146 -79.85538086 122.44463379 -79.1875 121.4375 C-77.81882297 119.35689413 -76.45033669 117.27616276 -75.08203125 115.1953125 C-74.39447754 114.1527832 -73.70692383 113.11025391 -72.99853516 112.03613281 C-70.1051071 107.64049742 -67.23896888 103.22736251 -64.375 98.8125 C-63.31260273 97.17701659 -62.25010284 95.54159985 -61.1875 93.90625 C-60.66414063 93.10058594 -60.14078125 92.29492188 -59.6015625 91.46484375 C-57.9641913 88.94488954 -56.32596822 86.42549105 -54.6875 83.90625 C-49.61689441 76.10939207 -44.54992088 68.31027458 -39.5 60.5 C-34.4592962 52.70398069 -29.40176185 44.91897719 -24.33984375 37.13671875 C-22.07965031 33.66169625 -19.82205886 30.18500286 -17.56640625 26.70703125 C-11.76625832 17.76690359 -5.94876885 8.84227877 0 0 Z " fill="#FDFDF7" transform="translate(127,12)"/>
<path d="M0 0 C11.07872149 -0.11760058 22.0670324 0.21522853 33.125 0.875 C34.53253061 0.95480676 35.94008282 1.03423333 37.34765625 1.11328125 C44.49362293 1.52139115 51.63586082 1.97110233 58.77636719 2.46606445 C75.50990523 3.62273465 92.23928757 4.53091364 108.99658203 5.26205444 C136.69052246 6.47155527 164.34838892 8.03601148 192 10 C192 10.33 192 10.66 192 11 C126.66 11 61.32 11 -6 11 C-4.02 7.37 -2.04 3.74 0 0 Z " fill="#D9D130" transform="translate(6,197)"/>
<path d="M0 0 C4.63739632 -0.08212323 9.00699563 0.17331991 13.58984375 0.875 C15.38325195 1.14570313 15.38325195 1.14570313 17.21289062 1.421875 C18.44201172 1.61265625 19.67113281 1.8034375 20.9375 2 C22.82178711 2.28617188 22.82178711 2.28617188 24.74414062 2.578125 C27.83016084 3.04748169 30.91537473 3.52157612 34 4 C32.34465329 8.47964614 30.01233597 11.63921496 26.875 15.1875 C25.88560445 16.32976494 24.89733461 17.47300586 23.91015625 18.6171875 C23.42047363 19.18276367 22.93079102 19.74833984 22.42626953 20.33105469 C19.17722697 24.13291277 16.09441153 28.07213665 13 32 C9.86870136 30.43435068 9.60955542 27.84779336 8.3984375 24.62890625 C8.1571109 23.99137924 7.9157843 23.35385223 7.66714478 22.69700623 C7.1578862 21.34735853 6.65206641 19.99640908 6.14941406 18.64428711 C5.3783941 16.57162406 4.5963966 14.50336959 3.8125 12.43554688 C0 2.29937174 0 2.29937174 0 0 Z " fill="#DAD233" transform="translate(105,127)"/>
<path d="M0 0 C1.60488281 0.14888672 1.60488281 0.14888672 3.2421875 0.30078125 C6.96275616 0.68582763 10.66805873 1.12598868 14.375 1.625 C12.9011205 6.48880236 10.22669612 10.34260769 6.375 13.625 C3.125 14.4375 3.125 14.4375 -0.625 14.625 C-2.44207472 14.95489351 -4.25468879 15.31012897 -6.0625 15.6875 C-6.92746094 15.86410156 -7.79242188 16.04070312 -8.68359375 16.22265625 C-9.64458984 16.42181641 -9.64458984 16.42181641 -10.625 16.625 C-10.03570415 11.12490544 -9.20830805 5.93373874 -7.625 0.625 C-4.89726695 -0.73886652 -3.02675224 -0.28351856 0 0 Z " fill="#DAD234" transform="translate(124.625,129.375)"/>
<path d="M0 0 C0.67095703 0.58007812 0.67095703 0.58007812 1.35546875 1.171875 C1.96003906 1.69265625 2.56460938 2.2134375 3.1875 2.75 C3.82171875 3.2965625 4.4559375 3.843125 5.109375 4.40625 C6.68220486 5.73210658 8.30440766 6.99912076 9.9375 8.25 C10.618125 8.8275 11.29875 9.405 12 10 C12 10.66 12 11.32 12 12 C9.87607494 12.6700834 7.75082476 13.33596797 5.625 14 C4.44164063 14.37125 3.25828125 14.7425 2.0390625 15.125 C-1 16 -1 16 -3 16 C-2.40984815 10.49191603 -1.43336231 5.35121931 0 0 Z " fill="#FDFCF4" transform="translate(117,130)"/>
<path d="M0 0 C3.05367352 2.66761079 4.79219733 5.84919968 6.79296875 9.34765625 C7.14386063 9.96015732 7.4947525 10.57265839 7.85627747 11.20372009 C8.59396906 12.49424602 9.32924831 13.78615353 10.06225586 15.0793457 C11.18764479 17.06275518 12.32273627 19.04037387 13.45898438 21.01757812 C14.17506506 22.27310352 14.89057971 23.52895196 15.60546875 24.78515625 C16.58229614 26.50037476 16.58229614 26.50037476 17.57885742 28.25024414 C19 31 19 31 19 33 C18.01 33 17.02 33 16 33 C14.35 30.03 12.7 27.06 11 24 C10.67 24.99 10.34 25.98 10 27 C8.32776718 22.87723451 6.66315937 18.75143325 5 14.625 C4.28457031 12.8615625 4.28457031 12.8615625 3.5546875 11.0625 C3.10351562 9.94101562 2.65234375 8.81953125 2.1875 7.6640625 C1.76855469 6.62717285 1.34960938 5.5902832 0.91796875 4.52197266 C0 2 0 2 0 0 Z " fill="#E0D955" transform="translate(131,19)"/>
<path d="M0 0 C3.52396659 0.34548692 6.65737114 0.87865228 10 2.0625 C13.4557477 3.14242116 16.40057369 3.14397705 20 3 C20 3.66 20 4.32 20 5 C24.62 5 29.24 5 34 5 C34 5.66 34 6.32 34 7 C26.02877209 7.10307622 18.0864236 7.05150484 10.125 6.625 C9.42955078 6.59414307 8.73410156 6.56328613 8.01757812 6.53149414 C6.33874507 6.43025057 4.66679419 6.22478395 3 6 C2.67 5.34 2.34 4.68 2 4 C-0.32156597 3.59270772 -2.6568787 3.25561323 -5 3 C-4.360625 2.690625 -3.72125 2.38125 -3.0625 2.0625 C-1.06389179 1.1654837 -1.06389179 1.1654837 0 0 Z " fill="#EFEBA6" transform="translate(179,201)"/>
<path d="M0 0 C2.27687802 2.8369941 3.83468917 5.57255422 5.26171875 8.9140625 C5.85629883 10.30238281 5.85629883 10.30238281 6.46289062 11.71875 C7.06907227 13.15734375 7.06907227 13.15734375 7.6875 14.625 C8.10322266 15.59179688 8.51894531 16.55859375 8.94726562 17.5546875 C12 24.73287408 12 24.73287408 12 27 C11.01 27 10.02 27 9 27 C6.69 20.73 4.38 14.46 2 8 C-1.49353838 9.74676919 -3.13945763 10.91405215 -5.75 13.625 C-6.36359375 14.25664063 -6.9771875 14.88828125 -7.609375 15.5390625 C-8.06828125 16.02117188 -8.5271875 16.50328125 -9 17 C-9 14 -9 14 -7.03125 11.9140625 C-5.34633862 10.39036177 -3.65884167 8.86951521 -1.96875 7.3515625 C0.24862928 5.15033922 0.24862928 5.15033922 0.28125 2.2109375 C0.1884375 1.48132812 0.095625 0.75171875 0 0 Z " fill="#DCD540" transform="translate(142,46)"/>
<path d="M0 0 C0.66 1.32 1.32 2.64 2 4 C1.27683594 4.99580078 1.27683594 4.99580078 0.5390625 6.01171875 C-0.09257812 6.89472656 -0.72421875 7.77773437 -1.375 8.6875 C-2.31472656 9.99267578 -2.31472656 9.99267578 -3.2734375 11.32421875 C-4.89787082 13.84172288 -5.91222683 16.22430294 -7 19 C-9.125 21.3125 -9.125 21.3125 -11 23 C-11 19.00844199 -10.71680571 17.99966888 -8.84765625 14.70703125 C-8.40099609 13.91232422 -7.95433594 13.11761719 -7.49414062 12.29882812 C-7.02169922 11.47833984 -6.54925781 10.65785156 -6.0625 9.8125 C-5.59392578 8.98041016 -5.12535156 8.14832031 -4.64257812 7.29101562 C-1.18268327 1.18268327 -1.18268327 1.18268327 0 0 Z " fill="#E5E074" transform="translate(28,159)"/>
<path d="M0 0 C1.8455362 2.76830431 2.48817944 4.35049783 3.25390625 7.4921875 C3.46853516 8.36230469 3.68316406 9.23242188 3.90429688 10.12890625 C4.12150391 11.03511719 4.33871094 11.94132812 4.5625 12.875 C4.89411133 14.22271484 4.89411133 14.22271484 5.23242188 15.59765625 C6.23991188 19.71892958 7.1871095 23.83537871 8 28 C7.34 28 6.68 28 6 28 C5.67 28.66 5.34 29.32 5 30 C4.34 27.36 3.68 24.72 3 22 C2.67 22 2.34 22 2 22 C1.34 14.74 0.68 7.48 0 0 Z " fill="#DDD645" transform="translate(147,66)"/>
<path d="M0 0 C0.99 0.33 1.98 0.66 3 1 C-2.59572977 9.65319036 -2.59572977 9.65319036 -5.75 13.25 C-8.08450937 15.79582779 -8.08450937 15.79582779 -8.9375 18.5625 C-10.49115297 22.12676269 -12.92483417 23.66019991 -16 26 C-14.64356298 22.28289683 -12.95339775 19.1945803 -10.7421875 15.91796875 C-10.11699219 14.98662109 -9.49179687 14.05527344 -8.84765625 13.09570312 C-8.19667969 12.13599609 -7.54570312 11.17628906 -6.875 10.1875 C-6.21628906 9.20845703 -5.55757812 8.22941406 -4.87890625 7.22070312 C-3.25674211 4.81096653 -1.63033154 2.40421506 0 0 Z " fill="#FAF9E5" transform="translate(38,149)"/>
<path d="M0 0 C0.33 0 0.66 0 1 0 C1 3.3 1 6.6 1 10 C4.63 10.99 8.26 11.98 12 13 C7.85606435 14.03598391 6.5505947 13.86655078 2.578125 12.78515625 C1.55332031 12.51123047 0.52851563 12.23730469 -0.52734375 11.95507812 C-1.59082031 11.66052734 -2.65429688 11.36597656 -3.75 11.0625 C-4.82894531 10.77181641 -5.90789062 10.48113281 -7.01953125 10.18164062 C-9.68213534 9.46297315 -12.34200049 8.73548127 -15 8 C-11.24464902 5.49643268 -10.13110586 6.0391408 -5.8125 6.875 C-4.72582031 7.07867187 -3.63914063 7.28234375 -2.51953125 7.4921875 C-1.68808594 7.65976563 -0.85664063 7.82734375 0 8 C0 5.36 0 2.72 0 0 Z " fill="#E2DC62" transform="translate(158,185)"/>
<path d="M0 0 C2.39135967 2.18251855 3.8217659 4.26837134 5.26171875 7.16015625 C5.65810547 7.95357422 6.05449219 8.74699219 6.46289062 9.56445312 C7.06907227 10.80098633 7.06907227 10.80098633 7.6875 12.0625 C8.10322266 12.89072266 8.51894531 13.71894531 8.94726562 14.57226562 C12 20.73287408 12 20.73287408 12 23 C11.01 23 10.02 23 9 23 C7.49414477 19.54418685 5.99631711 16.08495247 4.5 12.625 C4.07074219 11.64015625 3.64148438 10.6553125 3.19921875 9.640625 C2.79316406 8.69960938 2.38710937 7.75859375 1.96875 6.7890625 C1.59169922 5.91975098 1.21464844 5.05043945 0.82617188 4.15478516 C0 2 0 2 0 0 Z " fill="#F9F8E2" transform="translate(141,41)"/>
<path d="M0 0 C0.66 0 1.32 0 2 0 C2.90833969 2.72501908 3.18359985 4.62233971 3.31640625 7.44921875 C3.35830078 8.29677734 3.40019531 9.14433594 3.44335938 10.01757812 C3.48267578 10.89865234 3.52199219 11.77972656 3.5625 12.6875 C3.60568359 13.58017578 3.64886719 14.47285156 3.69335938 15.39257812 C3.79935353 17.59490108 3.90142051 19.79733473 4 22 C3.01 21.67 2.02 21.34 1 21 C0.87625 20.030625 0.7525 19.06125 0.625 18.0625 C0.315625 16.5465625 0.315625 16.5465625 0 15 C-0.66 14.67 -1.32 14.34 -2 14 C-1.01 14 -0.02 14 1 14 C0.67 9.38 0.34 4.76 0 0 Z " fill="#E4DE6A" transform="translate(148,92)"/>
<path d="M0 0 C4.91481794 4.52275269 7.05139661 10.73663198 9 17 C9.37125 17.845625 9.7425 18.69125 10.125 19.5625 C11.07117939 22.19828544 11.15876134 24.22167661 11 27 C8.25935663 24.25935663 7.35733832 21.01148079 6.0625 17.4375 C5.79743652 16.71820313 5.53237305 15.99890625 5.25927734 15.2578125 C3.40707022 10.20323376 1.64742032 5.12530766 0 0 Z " fill="#EFECAB" transform="translate(131,19)"/>
<path d="M0 0 C0.185625 0.598125 0.37125 1.19625 0.5625 1.8125 C2.72273753 5.09981799 5.35107655 5.64854687 9 7 C5.01754349 8.3274855 2.55210457 6.99907829 -1.1875 5.5625 C-1.84169922 5.31951172 -2.49589844 5.07652344 -3.16992188 4.82617188 C-4.78303286 4.2256707 -6.3919435 3.61390797 -8 3 C-7.34 2.34 -6.68 1.68 -6 1 C-2.875 1.375 -2.875 1.375 0 2 C0 1.34 0 0.68 0 0 Z " fill="#F6F4CF" transform="translate(146,185)"/>
<path d="M0 0 C2.15377564 2.62198774 3.40072174 4.64404172 4 8 C2.89591797 8.12181641 2.89591797 8.12181641 1.76953125 8.24609375 C-1.61329376 9.16694738 -2.93451218 10.52329267 -5.3125 13.0625 C-6.00988281 13.79597656 -6.70726562 14.52945313 -7.42578125 15.28515625 C-8.20501953 16.13400391 -8.20501953 16.13400391 -9 17 C-9 14 -9 14 -7.03125 11.9140625 C-5.34633862 10.39036177 -3.65884167 8.86951521 -1.96875 7.3515625 C0.24862928 5.15033922 0.24862928 5.15033922 0.28125 2.2109375 C0.1884375 1.48132812 0.095625 0.75171875 0 0 Z " fill="#E1DA5A" transform="translate(142,46)"/>
<path d="M0 0 C8.415 1.485 8.415 1.485 17 3 C17 3.33 17 3.66 17 4 C14.95840905 4.0272616 12.91671037 4.04651345 10.875 4.0625 C9.73804688 4.07410156 8.60109375 4.08570313 7.4296875 4.09765625 C4.1870844 4.005327 1.18067388 3.61389906 -2 3 C-1.34 2.01 -0.68 1.02 0 0 Z " fill="#DDD645" transform="translate(161,199)"/>
<path d="M0 0 C0.66 0.33 1.32 0.66 2 1 C-0.48616758 4.72925137 -3.06150179 5.3557991 -7.125 6.6875 C-7.78371094 6.91244141 -8.44242187 7.13738281 -9.12109375 7.36914062 C-10.74428901 7.921968 -12.37175979 8.46221309 -14 9 C-14 8.34 -14 7.68 -14 7 C-11.71296692 5.80274117 -9.42115138 4.61702982 -7.125 3.4375 C-6.14853516 2.92413086 -6.14853516 2.92413086 -5.15234375 2.40039062 C-3.46470143 1.53917109 -1.73420407 0.76313297 0 0 Z " fill="#F9F7DD" transform="translate(91,123)"/>
<path d="M0 0 C0.66 1.32 1.32 2.64 2 4 C0.02 6.64 -1.96 9.28 -4 12 C-5 8 -5 8 -4.00390625 5.859375 C-3.52824219 5.16328125 -3.05257813 4.4671875 -2.5625 3.75 C-2.08941406 3.04359375 -1.61632812 2.3371875 -1.12890625 1.609375 C-0.75636719 1.07828125 -0.38382813 0.5471875 0 0 Z " fill="#E1DA59" transform="translate(28,159)"/>
<path d="M0 0 C0.99 0.33 1.98 0.66 3 1 C1.8553125 2.0828125 1.8553125 2.0828125 0.6875 3.1875 C-2.01435525 5.798255 -2.01435525 5.798255 -3.5 8.5625 C-5.25963804 11.42191181 -7.30554291 13.03377456 -10 15 C-8.37815499 11.41486894 -6.20743761 8.41007677 -3.875 5.25 C-3.15054688 4.26515625 -2.42609375 3.2803125 -1.6796875 2.265625 C-1.12539063 1.51796875 -0.57109375 0.7703125 0 0 Z " fill="#E0DA57" transform="translate(39,152)"/>
<path d="M0 0 C0.66 0.33 1.32 0.66 2 1 C2 1.66 2 2.32 2 3 C1.01 3.495 1.01 3.495 0 4 C-1.13350534 6.01669827 -1.13350534 6.01669827 -2 8 C-2.99 8 -3.98 8 -5 8 C-7.17032476 9.43990623 -7.17032476 9.43990623 -9 11 C-9.66 10.67 -10.32 10.34 -11 10 C-5.555 5.05 -5.555 5.05 0 0 Z " fill="#F8F7DC" transform="translate(68,131)"/>
<path d="M0 0 C0.66 0.33 1.32 0.66 2 1 C2 1.66 2 2.32 2 3 C-0.2863012 4.36402043 -2.57821749 5.71634274 -4.875 7.0625 C-5.85146484 7.64741211 -5.85146484 7.64741211 -6.84765625 8.24414062 C-8.53065725 9.22444533 -10.26296199 10.11898432 -12 11 C-12.66 10.67 -13.32 10.34 -14 10 C-9.38 6.7 -4.76 3.4 0 0 Z " fill="#DED749" transform="translate(81,125)"/>
<path d="M0 0 C4.57071175 0.34495938 7.58325171 0.85659158 11 4 C5.54230189 4.11138159 0.38490641 3.91657981 -5 3 C-4.360625 2.690625 -3.72125 2.38125 -3.0625 2.0625 C-1.06389179 1.1654837 -1.06389179 1.1654837 0 0 Z " fill="#E6E27A" transform="translate(179,201)"/>
<path d="M0 0 C3.80339125 5.70508687 4.56387821 13.23346143 4 20 C3.34 20.66 2.68 21.32 2 22 C1.34 14.74 0.68 7.48 0 0 Z " fill="#E8E381" transform="translate(147,66)"/>
<path d="M0 0 C0.66 0.33 1.32 0.66 2 1 C-1.63 4.63 -5.26 8.26 -9 12 C-9 8.47601214 -8.44884893 7.98495633 -6.1875 5.4375 C-5.40439453 4.53837891 -5.40439453 4.53837891 -4.60546875 3.62109375 C-3 2 -3 2 0 0 Z " fill="#FAEB70" transform="translate(809,46)"/>
<path d="M0 0 C0.33 1.32 0.66 2.64 1 4 C3.31 4.33 5.62 4.66 8 5 C8 5.33 8 5.66 8 6 C2.63108121 5.50130596 -2.69235173 4.97772468 -8 4 C-5 2 -5 2 -1 2 C-0.67 1.34 -0.34 0.68 0 0 Z " fill="#F6F4CD" transform="translate(171,196)"/>
<path d="M0 0 C0.66 0.33 1.32 0.66 2 1 C-1.96 4.96 -5.92 8.92 -10 13 C-10 8.83248505 -7.76127698 6.85829482 -5 4 C-3.36927384 2.62294236 -1.7133562 1.27277889 0 0 Z " fill="#FAD36A" transform="translate(515,51)"/>
<path d="M0 0 C5.28 0 10.56 0 16 0 C16 0.33 16 0.66 16 1 C14.55367187 1.05607422 14.55367187 1.05607422 13.078125 1.11328125 C11.81484375 1.17902344 10.5515625 1.24476563 9.25 1.3125 C7.99703125 1.37050781 6.7440625 1.42851562 5.453125 1.48828125 C1.96923537 2.00455901 0.52110204 2.6253256 -2 5 C-1.34 3.35 -0.68 1.7 0 0 Z " fill="#E6E178" transform="translate(6,197)"/>
<path d="M0 0 C0.99 0.66 1.98 1.32 3 2 C1.58376784 2.05447047 0.16691809 2.09300508 -1.25 2.125 C-2.03890625 2.14820313 -2.8278125 2.17140625 -3.640625 2.1953125 C-6.20731941 1.9828378 -7.7916067 1.28654105 -10 0 C-6.80429821 -1.59785089 -3.38635924 -0.77115111 0 0 Z " fill="#FAF9E5" transform="translate(162,197)"/>
<path d="M0 0 C3.14494435 1.04831478 3.79132085 1.70637166 6 4 C7.65533995 5.34736973 9.32012773 6.68334336 11 8 C6.87248551 7.39301257 3.6678852 5.96189209 0 4 C0 2.68 0 1.36 0 0 Z " fill="#E3DD67" transform="translate(131,178)"/>
<path d="M0 0 C0.66 0.33 1.32 0.66 2 1 C1.01 3.64 0.02 6.28 -1 9 C-1.99 9 -2.98 9 -4 9 C-4.99 9.495 -4.99 9.495 -6 10 C-4.34832443 6.4213696 -2.21713508 3.25179812 0 0 Z " fill="#F9F8E2" transform="translate(139,131)"/>
<path d="M0 0 C2.40575607 2.18517099 3.79535581 4.25919671 5.1875 7.1875 C5.53167969 7.90292969 5.87585938 8.61835938 6.23046875 9.35546875 C6.48441406 9.89816406 6.73835937 10.44085938 7 11 C6.01 11.33 5.02 11.66 4 12 C3.3291288 10.3767313 2.66342971 8.75132422 2 7.125 C1.62875 6.22007813 1.2575 5.31515625 0.875 4.3828125 C0 2 0 2 0 0 Z " fill="#E8E382" transform="translate(131,19)"/>
<path d="M0 0 C0.66 0 1.32 0 2 0 C1.82374165 2.37948772 1.30280227 3.70225849 -0.40234375 5.37890625 C-1.90649092 6.62115486 -3.45129851 7.81376056 -5 9 C-3.7580393 5.56072421 -2.44259716 2.74792181 0 0 Z " fill="#F3F0BD" transform="translate(27,166)"/>
<path d="M0 0 C0.66 0 1.32 0 2 0 C0.61811547 3.21043882 -0.92421903 5.04936365 -3.625 7.25 C-4.57246094 8.03117188 -4.57246094 8.03117188 -5.5390625 8.828125 C-6.02117188 9.21484375 -6.50328125 9.6015625 -7 10 C-5.15014033 6.06048404 -2.92434659 3.21678125 0 0 Z " fill="#FBFAEC" transform="translate(49,143)"/>
<path d="M0 0 C0 0.66 0 1.32 0 2 C-3.63 2.33 -7.26 2.66 -11 3 C-4.33333333 -1.44444444 -4.33333333 -1.44444444 0 0 Z " fill="#DED84C" transform="translate(102,124)"/>
<path d="M0 0 C0.66 0.33 1.32 0.66 2 1 C0.15794162 3.54379491 -1.72478134 5.83312509 -4 8 C-4.66 7.67 -5.32 7.34 -6 7 C-4.02 4.69 -2.04 2.38 0 0 Z " fill="#FBFAEC" transform="translate(75,125)"/>
<path d="M0 0 C0.99 0.495 0.99 0.495 2 1 C2.73075648 3.3140622 3.40138258 5.64828869 4 8 C3.01 8.33 2.02 8.66 1 9 C0.67 6.03 0.34 3.06 0 0 Z " fill="#FAFAE8" transform="translate(150,72)"/>
</svg>
