<?xml version="1.0" encoding="UTF-8"?>
<svg version="1.1" xmlns="http://www.w3.org/2000/svg" width="890" height="190">
<path d="M0 0 C11.87884555 8.32083951 18.96033239 20.67830117 21.88769531 34.76074219 C25.27760652 54.04255713 23.55458538 74.09195005 12.46484375 90.7265625 C4.99600242 100.89963948 -5.06987672 107.26285948 -17.56640625 109.1953125 C-29.40194336 110.43522591 -39.31097742 108.91488127 -49.53515625 102.7265625 C-52.17515625 100.0865625 -54.81515625 97.4465625 -57.53515625 94.7265625 C-57.86515625 111.2265625 -58.19515625 127.7265625 -58.53515625 144.7265625 C-68.76515625 144.7265625 -78.99515625 144.7265625 -89.53515625 144.7265625 C-89.55770217 125.44702916 -89.57613478 106.16750645 -89.58696842 86.88796329 C-89.59213166 77.93677868 -89.59917488 68.98560282 -89.6105957 60.03442383 C-89.6205417 52.23545862 -89.62700947 44.43649974 -89.62924474 36.63752836 C-89.630552 32.50544064 -89.63363876 28.37337106 -89.64088631 24.24128914 C-89.64764519 20.35654724 -89.64977348 16.47183104 -89.64826393 12.58708382 C-89.64854032 11.15716411 -89.65054623 9.72724359 -89.65436172 8.29732895 C-89.65929684 6.35338199 -89.6575543 4.40942141 -89.65541077 2.46546936 C-89.65633256 1.37498826 -89.65725435 0.28450716 -89.65820408 -0.83901882 C-89.53515625 -3.2734375 -89.53515625 -3.2734375 -88.53515625 -4.2734375 C-86.38956798 -4.36119355 -84.24111204 -4.38038969 -82.09375 -4.37109375 C-80.78857422 -4.36787109 -79.48339844 -4.36464844 -78.13867188 -4.36132812 C-76.74999935 -4.35297151 -75.36132748 -4.34450655 -73.97265625 -4.3359375 C-72.58007969 -4.33092416 -71.18750144 -4.32636097 -69.79492188 -4.32226562 C-66.37495755 -4.31043184 -62.95507781 -4.2939463 -59.53515625 -4.2734375 C-59.20515625 -0.3134375 -58.87515625 3.6465625 -58.53515625 7.7265625 C-57.54515625 6.4890625 -56.55515625 5.2515625 -55.53515625 3.9765625 C-41.88788873 -11.46854865 -16.42983265 -9.79517189 0 0 Z M-51.78515625 23.7890625 C-59.33474813 33.33405059 -60.23681351 46.04526857 -59.53515625 57.7265625 C-58.19999284 67.6271386 -55.22955592 75.14952282 -48.03515625 82.1640625 C-41.03005697 86.54224955 -33.24550407 86.70244258 -25.2265625 85.33203125 C-19.42492266 83.57909913 -15.77389684 79.73263616 -12.53515625 74.7265625 C-6.3577306 61.67909075 -5.7000815 46.62624864 -10.5 32.984375 C-13.59689346 26.12324402 -18.08041235 20.92807773 -24.890625 17.5625 C-34.83459111 14.41920791 -44.58570359 16.35736944 -51.78515625 23.7890625 Z " fill="#1FF22E" transform="translate(377.53515625,45.2734375)"/>
<path d="M0 0 C1.91232422 0.13728516 1.91232422 0.13728516 3.86328125 0.27734375 C16.4488732 1.36876948 27.38381708 3.97035673 37.09765625 12.546875 C43.55787836 20.8775105 43.57545059 29.526922 43.5390625 39.6640625 C43.54899457 41.18469643 43.56094522 42.70531837 43.57479858 44.22592163 C43.60701596 48.21499768 43.61753628 52.20379988 43.62164307 56.19299316 C43.63042277 62.55364677 43.66657488 68.91407653 43.7138176 75.27454758 C43.72617036 77.4693871 43.7256645 79.66392882 43.72354126 81.85879517 C43.75498496 92.78886563 44.85438445 103.27192226 47 114 C36.77 114 26.54 114 16 114 C15.01 111.03 14.02 108.06 13 105 C12.46632813 105.38671875 11.93265625 105.7734375 11.3828125 106.171875 C-2.36266307 115.77943924 -17.39588442 118.62067313 -34 116 C-43.40292331 113.9489024 -51.10119603 108.86883455 -56.4765625 100.77734375 C-61.00685923 92.05896696 -61.34112353 81.54331606 -59.38671875 72.0078125 C-56.788156 64.65857335 -52.09479194 59.24949943 -45.26953125 55.5 C-33.67738977 50.35474301 -21.44800328 48.61932603 -8.95361328 47.17724609 C2.11326007 45.99742635 2.11326007 45.99742635 11 40 C12.43826019 36.12776102 11.94574875 32.75757998 10.859375 28.8671875 C9.38092127 25.65491075 7.0865339 24.51300681 4 23 C-2.96606678 20.67797774 -11.30248539 21.39921847 -18.08984375 23.9609375 C-21.25028869 25.68011614 -22.46584466 27.80895689 -24 31 C-24.66 33.31 -25.32 35.62 -26 38 C-36.23 38 -46.46 38 -57 38 C-55.92548492 27.2548492 -53.82846444 19.65449857 -46 12 C-32.74517611 2.4257352 -16.21101503 -1.18126776 0 0 Z M9.0859375 61.37890625 C3.60904719 63.75985933 -2.22674541 64.43169253 -8.0859375 65.37304688 C-15.2213587 66.61241146 -21.84283624 68.4588682 -27.5625 73.0625 C-29.80241008 77.63970755 -29.60954801 82.00321136 -29 87 C-27.6930728 90.4851392 -26.56014503 91.59784459 -23.5625 93.75 C-14.98995953 96.75790894 -6.28089575 96.93987255 2 93 C7.32208984 89.67620427 10.11612945 86.07024954 12 80 C13.23928167 73.35294375 13.10117656 66.74510402 13 60 C11.61334512 59.92871305 11.61334512 59.92871305 9.0859375 61.37890625 Z " fill="#1EF22D" transform="translate(528,38)"/>
<path d="M0 0 C8.42658149 7.03852944 11.30238511 14.51568705 13.1796875 25.05078125 C13.42322998 27.90654888 13.43478706 30.73510646 13.40673828 33.59985352 C13.40703033 34.40096054 13.40732239 35.20206757 13.40762329 36.02745056 C13.40624456 38.64081152 13.39075302 41.25387717 13.375 43.8671875 C13.37126468 45.69278304 13.36842016 47.51838061 13.36642456 49.34397888 C13.35882899 54.12299238 13.33921597 58.90188217 13.3170166 63.68084717 C13.29646988 68.56781339 13.28740405 73.45479981 13.27734375 78.34179688 C13.25596584 87.91152112 13.22081739 97.48112149 13.1796875 107.05078125 C3.2796875 107.05078125 -6.6203125 107.05078125 -16.8203125 107.05078125 C-17.62229398 103.84285532 -17.93955592 101.74445744 -17.91796875 98.53955078 C-17.91466553 97.64986603 -17.9113623 96.76018127 -17.90795898 95.84353638 C-17.89966064 94.88325531 -17.8913623 93.92297424 -17.8828125 92.93359375 C-17.87713257 91.42223343 -17.87713257 91.42223343 -17.87133789 89.88034058 C-17.85513026 85.58635281 -17.82752021 81.29246195 -17.79980469 76.99853516 C-17.73318524 65.69952561 -17.7227895 54.40032925 -18.0703125 43.10546875 C-18.09146118 41.80284592 -18.09146118 41.80284592 -18.11303711 40.47390747 C-18.3565555 34.21219023 -19.6817401 28.53391718 -22.8203125 23.05078125 C-27.60964274 18.90946062 -32.98400697 18.47003267 -39.140625 18.734375 C-44.76327827 19.39827429 -48.42755229 20.78182195 -52.6328125 24.61328125 C-58.84760704 33.20143678 -58.28978014 44.00502344 -58.33203125 54.12109375 C-58.3489085 55.65381276 -58.36706276 57.18651818 -58.38642883 58.71920776 C-58.43360493 62.72049716 -58.46362242 66.72173146 -58.48986816 70.72320557 C-58.52512365 75.54181461 -58.58204266 80.36021221 -58.63526154 85.1786499 C-58.71339499 92.46933213 -58.76428705 99.75974486 -58.8203125 107.05078125 C-69.0503125 107.05078125 -79.2803125 107.05078125 -89.8203125 107.05078125 C-89.8203125 70.42078125 -89.8203125 33.79078125 -89.8203125 -3.94921875 C-80.2503125 -3.94921875 -70.6803125 -3.94921875 -60.8203125 -3.94921875 C-60.3253125 2.98078125 -60.3253125 2.98078125 -59.8203125 10.05078125 C-58.8509375 8.85453125 -57.8815625 7.65828125 -56.8828125 6.42578125 C-43.12618494 -9.08817997 -17.27409053 -11.93874124 0 0 Z " fill="#1FF22E" transform="translate(683.8203125,44.94921875)"/>
<path d="M0 0 C7.33891136 6.17105566 10.2167086 13.39851727 12.0625 22.6875 C12.0625 23.6775 12.0625 24.6675 12.0625 25.6875 C2.1625 25.6875 -7.7375 25.6875 -17.9375 25.6875 C-18.9275 22.7175 -19.9175 19.7475 -20.9375 16.6875 C-24.4370287 12.66952261 -30.04245379 11.98521752 -35.140625 11.4609375 C-40.69275683 11.24739397 -45.95660431 12.12860433 -50.9375 14.6875 C-53.17220041 18.03955061 -53.30318928 19.82234198 -52.640625 23.76171875 C-51.99914093 26.01689659 -51.99914093 26.01689659 -49.25 27.9375 C-41.82727066 31.35763082 -33.64112634 33.07204253 -25.7109375 34.91015625 C-24.79844238 35.1222876 -23.88594727 35.33441895 -22.94580078 35.55297852 C-21.15707787 35.96445761 -19.3664557 36.36779844 -17.57373047 36.76147461 C-6.46146279 39.29084648 4.79461815 43.15085071 11.5625 52.9375 C16.07592363 61.21210999 15.51851427 73.54040896 13.00390625 82.4296875 C8.21643761 92.62738492 0.40522211 98.62801888 -9.9375 102.6875 C-16.80965563 104.84347039 -23.74603465 106.26369357 -30.9375 106.6875 C-31.60652344 106.72875 -32.27554688 106.77 -32.96484375 106.8125 C-49.69037573 107.31083987 -65.48815085 103.44882616 -77.8359375 91.9140625 C-85.07426688 84.43140133 -86.9375 76.963717 -86.9375 66.6875 C-77.3675 66.6875 -67.7975 66.6875 -57.9375 66.6875 C-56.6175 70.3175 -55.2975 73.9475 -53.9375 77.6875 C-49.05074441 82.82485844 -43.42324285 84.09082462 -36.5625 84.65234375 C-29.77178538 84.74329082 -24.21743862 83.06598569 -18.9375 78.6875 C-16.59526872 75.49354825 -16.3823587 72.5734891 -16.9375 68.6875 C-25.51167964 58.68429042 -41.55666222 57.15431446 -53.81079102 54.36181641 C-63.52044351 52.06902555 -75.521144 48.7877508 -81.15234375 39.734375 C-85.91099649 30.58963307 -85.92576101 22.16265062 -82.97265625 12.328125 C-79.74322625 4.09003187 -73.3523341 -1.6660216 -65.5078125 -5.5 C-45.38550146 -13.62057656 -17.94175393 -12.9251451 0 0 Z " fill="#1FF22E" transform="translate(875.9375,48.3125)"/>
<path d="M0 0 C10.23 0 20.46 0 31 0 C31 10.56 31 21.12 31 32 C38.26 32 45.52 32 53 32 C53 38.93 53 45.86 53 53 C45.74 53 38.48 53 31 53 C31.09370586 60.84729427 31.19983959 68.69428628 31.31738281 76.54125977 C31.35667589 79.20954337 31.39047621 81.8777358 31.421875 84.54614258 C31.46765212 88.38641382 31.52562699 92.2263391 31.5859375 96.06640625 C31.59748871 97.25520889 31.60903992 98.44401154 31.62094116 99.6688385 C31.75602241 108.03036545 31.75602241 108.03036545 34 116 C37.7237118 118.48247453 40.86765615 118.44322972 45.1875 118.625 C47.765625 118.74875 50.34375 118.8725 53 119 C53 126.92 53 134.84 53 143 C39.11009703 145.77798059 21.36973842 145.66528498 8.875 138.375 C3.47682024 134.32134829 1.54613304 129.2887628 0.46508789 122.77880859 C-0.32123357 116.21488289 -0.1228331 109.59972505 -0.09765625 103 C-0.0957881 101.55411834 -0.09436607 100.10823604 -0.09336853 98.66235352 C-0.08957463 94.88126843 -0.07977151 91.10022256 -0.06866455 87.31915283 C-0.05838274 83.4510552 -0.05385649 79.58295115 -0.04882812 75.71484375 C-0.03814604 68.14320933 -0.02057504 60.57161519 0 53 C-5.94 53 -11.88 53 -18 53 C-18 46.07 -18 39.14 -18 32 C-12.06 32 -6.12 32 0 32 C0 21.44 0 10.88 0 0 Z " fill="#1EF22E" transform="translate(727,9)"/>
<path d="M0 0 C10.23 0 20.46 0 31 0 C31.02254579 19.67068476 31.04097845 39.34135911 31.05181217 59.01205349 C31.05697544 68.14484048 31.06401872 77.2776189 31.07543945 86.41040039 C31.08538535 94.36757874 31.0918532 102.32475088 31.09408849 110.28193527 C31.09539576 114.49785986 31.09848262 118.71376668 31.10573006 122.92968559 C31.11248879 126.89322184 31.11461726 130.85673289 31.11310768 134.82027435 C31.11338408 136.27922006 31.11539007 137.73816657 31.11920547 139.19710732 C31.12414036 141.18046595 31.12239811 143.16383792 31.12025452 145.14720154 C31.12117631 146.25980567 31.1220981 147.3724098 31.12304783 148.51872921 C31 151 31 151 30 152 C20.1 152 10.2 152 0 152 C0 101.84 0 51.68 0 0 Z " fill="#1EF22E" transform="translate(419,0)"/>
<path d="M0 0 C9.78287622 4.30531807 15.55646683 16.17162536 19.48046875 25.53125 C23.19640321 35.55664503 25.29108791 45.34943983 26 56 C26.05414063 56.72058594 26.10828125 57.44117188 26.1640625 58.18359375 C27.01602914 80.52835509 18.89299669 100.67813352 5.7109375 118.28515625 C3.80979397 120.19064029 2.6298028 120.62677471 0 121 C-10.81518682 110.65631996 -17.61562357 96.45371814 -21 82 C-21.22300781 81.07574219 -21.44601563 80.15148437 -21.67578125 79.19921875 C-26.43182354 55.80725566 -21.78871218 31.10077678 -9 11 C-3.30366492 3.30366492 -3.30366492 3.30366492 0 0 Z " fill="#1DF22C" transform="translate(119,29)"/>
<path d="M0 0 C1.42097273 19.53837497 -7.95801666 38.22850044 -20 53 C-20.68707031 53.85078125 -21.37414062 54.7015625 -22.08203125 55.578125 C-34.88641869 70.62039637 -54.04194393 82.14861104 -73.8125 84.75 C-74.864375 84.8325 -75.91625 84.915 -77 85 C-75.70949346 81.53214592 -74.18242149 78.54831425 -72.1875 75.4375 C-64.4973741 62.69546658 -59.82829077 48.08397402 -59.93383789 33.13525391 C-59.94853684 24.31392651 -59.94853684 24.31392651 -56.9921875 20.21875 C-54.12939556 17.781621 -51.24608739 15.89515922 -48 14 C-46.90558594 13.29488281 -45.81117188 12.58976562 -44.68359375 11.86328125 C-32.34607262 4.11712477 -14.63285111 -3.7534079 0 0 Z " fill="#1EF22E" transform="translate(208,60)"/>
<path d="M0 0 C9.93903906 0.30209845 18.56517686 1.78209048 28 5 C29.00804688 5.33773437 30.01609375 5.67546875 31.0546875 6.0234375 C39.7254091 9.26633338 46.69579228 14.4465431 54 20 C55.16208984 20.59941406 55.16208984 20.59941406 56.34765625 21.2109375 C59.23099678 24.3328523 58.74230679 28.40496333 58.9375 32.5 C60.42287977 52.69525114 67.01243255 68.6496601 77 86 C55.73054134 83.39001148 38.84124448 74.03854315 24 59 C23.26136719 58.26007813 22.52273437 57.52015625 21.76171875 56.7578125 C7.90997729 42.07227689 -0.65559739 22.41794204 -0.10546875 2.16796875 C-0.07066406 1.45253906 -0.03585938 0.73710938 0 0 Z " fill="#1EF22E" transform="translate(33,59)"/>
<path d="M0 0 C2.8000267 -0.31398149 4.70670382 -0.33051922 7.41796875 0.46484375 C10.93047207 3.40058134 13.61955518 6.85929761 16.41796875 10.46484375 C31.3875341 28.08258773 53.4819942 34.81262875 75.41796875 38.46484375 C66.87597308 48.11299713 49.95507602 50.22433302 37.73046875 51.27734375 C12.64566628 52.64857767 -10.40754298 44.72543421 -29.58203125 28.46484375 C-38.81930931 19.43961225 -38.81930931 19.43961225 -39.58203125 14.46484375 C-27.2353008 5.55774299 -14.68976074 2.6446014 0 0 Z " fill="#1FF22F" transform="translate(39.58203125,111.53515625)"/>
<path d="M0 0 C6.25342686 0.21719846 12.11566719 1.04351098 18.19458008 2.52563477 C19.10449707 2.74388916 20.01441406 2.96214355 20.9519043 3.18701172 C29.90292104 5.48069984 37.19954445 9.34144435 44.88208008 14.46313477 C41.76412386 25.54920133 29.48679783 33.39000508 20.25708008 39.08813477 C-2.28074387 51.61550392 -28.52097526 54.78336838 -53.36010742 47.70922852 C-58.89813696 45.87281332 -64.17912286 43.58895569 -69.11791992 40.46313477 C-69.44791992 39.80313477 -69.77791992 39.14313477 -70.11791992 38.46313477 C-68.28680664 38.11702148 -68.28680664 38.11702148 -66.41870117 37.76391602 C-42.16747668 33.02534138 -21.78612457 23.00741439 -5.11791992 4.46313477 C-4.4601355 3.42274048 -4.4601355 3.42274048 -3.7890625 2.36132812 C-2.11791992 0.46313477 -2.11791992 0.46313477 0 0 Z " fill="#1FF22F" transform="translate(196.117919921875,111.536865234375)"/>
<path d="M0 0 C6.76563937 6.76563937 6.72628281 20.99470458 7 30 C5.71416016 30.77923828 5.71416016 30.77923828 4.40234375 31.57421875 C-1.54336924 35.19463244 -7.41055131 38.84041028 -13 43 C-15.2734843 39.58977356 -16.02642031 36.36075766 -16.9375 32.4375 C-18.4303132 26.2244733 -20.06656409 20.09325255 -22 14 C-14.9617959 8.4492514 -8.24918343 3.63183076 0 0 Z " fill="#24F233" transform="translate(163,34)"/>
<path d="M0 0 C8.56784896 3.44334355 15.92315222 8.06457928 23 14 C22.82984375 14.52464844 22.6596875 15.04929687 22.484375 15.58984375 C20.45266036 22.0848464 18.87581448 28.63534531 17.44628906 35.28491211 C16.21647587 40.78352413 16.21647587 40.78352413 14 43 C13.14277344 42.39671875 12.28554687 41.7934375 11.40234375 41.171875 C5.72619232 37.19732514 0.11945072 33.27319457 -6 30 C-5.66456957 20.05448778 -4.52565484 9.05130969 0 0 Z " fill="#25F234" transform="translate(77,34)"/>
<path d="M0 0 C5.8888434 -0.21221057 10.83290313 0.44679567 16.5 2 C17.59054688 2.28617187 17.59054688 2.28617187 18.703125 2.578125 C20.47106531 3.04337245 22.23588933 3.52043593 24 4 C23.45467693 9.25789109 21.68564313 13.07302959 19.1875 17.625 C18.84396484 18.27984375 18.50042969 18.9346875 18.14648438 19.609375 C14.09139694 27.12612244 14.09139694 27.12612244 11 29 C7.33698025 29.03212832 3.84533296 28.40587299 0.25 27.75 C-0.73355469 27.58886719 -1.71710938 27.42773438 -2.73046875 27.26171875 C-5.15775141 26.86109928 -7.57959216 26.43995889 -10 26 C-10 22.29873923 -9.84498086 21.18469974 -8.3203125 18.06640625 C-7.96839844 17.33486328 -7.61648437 16.60332031 -7.25390625 15.84960938 C-6.88136719 15.09486328 -6.50882813 14.34011719 -6.125 13.5625 C-5.39717493 12.06441483 -4.67057973 10.56573142 -3.9453125 9.06640625 C-3.60532227 8.36531738 -3.26533203 7.66422852 -2.91503906 6.94189453 C-1.84203482 4.66476652 -0.88942592 2.35463809 0 0 Z " fill="#26F235" transform="translate(211,82)"/>
<path d="M0 0 C0.43699219 1.10794922 0.43699219 1.10794922 0.8828125 2.23828125 C3.4941473 8.7009243 6.39018297 14.7332872 9.9609375 20.72265625 C11 23 11 23 10 26 C6.80152708 26.50219925 3.60349234 26.99426682 0.3984375 27.453125 C-2.85742809 27.91120216 -2.85742809 27.91120216 -5.3984375 28.671875 C-7.375 29.1875 -7.375 29.1875 -11 29 C-17.51351195 23.69733322 -21.10092033 14.66716308 -24 7 C-24 6.01 -24 5.02 -24 4 C-21.50276548 3.32114013 -19.00303859 2.65682573 -16.5 2 C-15.80390625 1.80921875 -15.1078125 1.6184375 -14.390625 1.421875 C-9.4587081 0.14322988 -5.09419909 -0.18357474 0 0 Z " fill="#26F235" transform="translate(31,82)"/>
<path d="M0 0 C0.66 0.33 1.32 0.66 2 1 C-0.97 3.97 -3.94 6.94 -7 10 C-7.66 9.67 -8.32 9.34 -9 9 C-6.21000549 5.51250686 -3.74764169 2.49842779 0 0 Z " fill="#62F66D" transform="translate(486,47)"/>
<path d="M0 0 C0.99 0.33 1.98 0.66 3 1 C0.19195732 3.96404505 -2.18315774 6.44499019 -6 8 C-2.25 2.25 -2.25 2.25 0 0 Z " fill="#5DF568" transform="translate(119,29)"/>
<path d="M0 0 C0.66 0.33 1.32 0.66 2 1 C1.21625 1.763125 0.4325 2.52625 -0.375 3.3125 C-3.07257717 5.90891805 -3.07257717 5.90891805 -5 9 C-5.33 7.68 -5.66 6.36 -6 5 C-4.02 3.35 -2.04 1.7 0 0 Z " fill="#5FF66A" transform="translate(147,43)"/>
</svg>
