<?xml version="1.0" encoding="UTF-8"?>
<svg version="1.1" xmlns="http://www.w3.org/2000/svg" width="890" height="178">
<path d="M0 0 C10.42203941 -0.53834899 20.84066626 -0.94416632 31.27388859 -1.19167995 C36.1221499 -1.31063993 40.96076453 -1.47111231 45.8034668 -1.73510742 C81.59148655 -3.63028909 81.59148655 -3.63028909 94.06187439 6.61126709 C103.3813329 15.1358693 107.66375911 24.65993339 108.48034859 37.19637108 C108.70400614 43.0107146 108.43418427 48.78680356 108.10388184 54.5914917 C107.96411978 57.5796242 107.94622054 60.56339877 107.93086243 63.55437183 C107.90887119 66.47193018 107.83771652 69.38655559 107.7494812 72.30280113 C107.70879458 73.67588561 107.67687042 75.04926339 107.65457153 76.42276955 C107.44710376 85.52165945 105.79352608 90.64122989 99.20239258 97.03300476 C97.88000088 98.21405586 96.54894212 99.38565512 95.20133972 100.53785706 C93.59437891 102.15820174 93.59437891 102.15820174 94.1965332 105.66894531 C94.44079366 107.11680293 94.70934363 108.56073848 95 110 C95.20258926 111.00710022 95.20258926 111.00710022 95.40927124 112.0345459 C96.36818091 116.49202013 97.48553506 120.91438045 98.59106445 125.33740234 C98.98984885 126.95049583 99.37847675 128.56613298 99.75708008 130.18408203 C100.30885209 132.54037496 100.89104893 134.88725391 101.48046875 137.234375 C101.72460762 138.31413605 101.72460762 138.31413605 101.97367859 139.41571045 C102.99969121 143.33711414 103.68372185 144.79078088 107.12084961 147.06445312 C110 149 110 149 110.68115234 152.11621094 C110.634021 153.90720215 110.634021 153.90720215 110.5859375 155.734375 C110.56345947 157.48572754 110.56345947 157.48572754 110.54052734 159.27246094 C110.45859131 161.48884277 110.45859131 161.48884277 110.375 163.75 C110.189375 170.80375 110.189375 170.80375 110 178 C95.15 178 80.3 178 65 178 C65 168.43 65 158.86 65 149 C66.65 148.34 68.3 147.68 70 147 C69.75092896 146.14003418 69.75092896 146.14003418 69.49682617 145.26269531 C66.49479425 134.87897616 63.52290036 124.51208481 61 114 C50.11 113.505 50.11 113.505 39 113 C39.05102986 117.6462688 39.11391196 122.2891712 39.20751953 126.93432617 C39.23574193 128.51429392 39.25695025 130.09440318 39.27099609 131.67456055 C39.29240965 133.94653845 39.33904534 136.21681271 39.390625 138.48828125 C39.39185364 139.19463211 39.39308228 139.90098297 39.39434814 140.6287384 C39.41771723 142.86942159 39.41771723 142.86942159 40 146 C41.31923033 147.01853282 42.65233578 148.0193987 44 149 C44.45410156 152.00268555 44.45410156 152.00268555 44.390625 155.63671875 C44.38063477 156.80678467 44.37064453 157.97685059 44.36035156 159.18237305 C44.30572754 161.41241089 44.30572754 161.41241089 44.25 163.6875 C44.1675 168.410625 44.085 173.13375 44 178 C29.48 178 14.96 178 0 178 C-0.103125 173.276875 -0.20625 168.55375 -0.3125 163.6875 C-0.35802002 162.20080811 -0.40354004 160.71411621 -0.45043945 159.18237305 C-0.46292725 158.01230713 -0.47541504 156.84224121 -0.48828125 155.63671875 C-0.51446533 154.43748779 -0.54064941 153.23825684 -0.56762695 152.00268555 C-0.38031006 151.01179932 -0.19299316 150.02091309 0 149 C0.82336349 148.66494949 1.64672699 148.32989899 2.49504089 147.98469543 C5.16006838 146.29879563 5.16006838 146.29879563 5.47326565 143.92231274 C5.65439963 141.01931865 5.67499701 138.15086432 5.64697266 135.2421875 C5.65573425 134.13466125 5.66449585 133.02713501 5.67352295 131.88604736 C5.69557775 128.21530286 5.6809413 124.54575732 5.6640625 120.875 C5.66742885 118.33056405 5.67227994 115.78612965 5.67855835 113.24169922 C5.68593801 107.90510285 5.67566342 102.56893849 5.65185547 97.23242188 C5.62464319 91.06154854 5.6334573 84.89150113 5.6609875 78.72064781 C5.68640524 72.78588348 5.68372303 66.85137596 5.66907883 60.91656494 C5.66573655 58.39031866 5.66986057 55.86405138 5.68147659 53.33782959 C5.69413499 49.81058418 5.67487561 46.28493834 5.64697266 42.7578125 C5.65709381 41.70732727 5.66721497 40.65684204 5.67764282 39.57452393 C5.63907023 36.95087139 5.58700481 34.55773238 5 32 C2.56712349 30.20439509 2.56712349 30.20439509 0 29 C-0.56762695 25.99731445 -0.56762695 25.99731445 -0.48828125 22.36328125 C-0.47216797 21.06455078 -0.45605469 19.76582031 -0.43945312 18.42773438 C-0.39767609 17.05597301 -0.35535135 15.68422823 -0.3125 14.3125 C-0.28741745 12.92907618 -0.26460418 11.54560923 -0.24414062 10.16210938 C-0.18510827 6.77365236 -0.10280082 3.38736615 0 0 Z M39 32 C39 47.84 39 63.68 39 80 C46.30125 80.12375 46.30125 80.12375 53.75 80.25 C56.04469238 80.30462402 56.04469238 80.30462402 58.38574219 80.36035156 C59.59391602 80.3703418 60.80208984 80.38033203 62.046875 80.390625 C63.28276367 80.41157227 64.51865234 80.43251953 65.79199219 80.45410156 C69.00268804 80.21512884 69.00268804 80.21512884 71.40136719 78.53808594 C73.78090232 74.76019234 73.57340867 71.38282339 73.53125 67 C73.5350769 66.12730469 73.53890381 65.25460938 73.54284668 64.35546875 C73.5455649 62.51300908 73.53820994 60.67051076 73.52148438 58.828125 C73.50007248 56.00954066 73.52128801 53.19350515 73.546875 50.375 C73.54423171 48.58332771 73.53910669 46.79165701 73.53125 45 C73.53934692 44.15824219 73.54744385 43.31648438 73.55578613 42.44921875 C73.49707143 38.78151973 73.38476257 36.61087227 71.40136719 33.46191406 C68.13818961 31.47534357 65.85446187 31.54483963 62.046875 31.609375 C60.83870117 31.61936523 59.63052734 31.62935547 58.38574219 31.63964844 C56.85594727 31.67606445 55.32615234 31.71248047 53.75 31.75 C48.8825 31.8325 44.015 31.915 39 32 Z " fill="#474747" transform="translate(146,0)"/>
<path d="M0 0 C6.56066179 4.06030839 10.87013338 9.6215335 13 17 C14.30736926 22.88584684 14.12618473 28.74719806 14.09765625 34.7421875 C14.0962413 35.86569611 14.09482635 36.98920471 14.09336853 38.14675903 C14.08778664 41.72286683 14.07523741 45.29891123 14.0625 48.875 C14.05748266 51.30468659 14.05292016 53.73437417 14.04882812 56.1640625 C14.03782314 62.10939651 14.02110301 68.05469372 14 74 C14.77939941 73.35474365 15.55879883 72.7094873 16.36181641 72.04467773 C20.11605244 69.13502321 23.32564282 68.76867516 28 69 C30.91493662 69.80729657 33.81592925 70.81592925 36 73 C35.74476563 74.21816406 35.48953125 75.43632813 35.2265625 76.69140625 C34.366566 82.2411345 34.15229347 86.99714304 37 92 C44.79771538 98.48856917 54.7587923 102.16961763 63.97998047 106.19384766 C69.58640487 108.66827115 74.91308084 111.62117064 80.25 114.625 C81.90036608 115.53508038 83.5513772 116.44399229 85.203125 117.3515625 C86.35458008 117.98819824 86.35458008 117.98819824 87.52929688 118.63769531 C92.01039339 121.10849754 96.50587032 123.553007 101 126 C101 126.33 101 126.66 101 127 C71.63 127 42.26 127 12 127 C12 135.58 12 144.16 12 153 C17.37724497 158.67112912 17.37724497 158.67112912 23.30859375 162.44921875 C28.35303692 165.12406053 32.87807664 168.3485427 37.5 171.6875 C38.94759161 172.69187491 40.39547904 173.69582369 41.84375 174.69921875 C42.8853125 175.45847656 43.926875 176.21773437 45 177 C45 177.33 45 177.66 45 178 C36.61964021 178.24997759 28.42015801 177.5316639 20.09634399 176.65975952 C7.58209673 175.3713799 -4.46372323 174.64309362 -17 176 C-19.84092462 176.27130108 -22.68261097 176.53296928 -25.5246582 176.79223633 C-27.39381289 176.96566305 -29.2622523 177.1470919 -31.12963867 177.33862305 C-37.43751516 177.96311283 -43.66316609 178.10263618 -50 178 C-46.85471311 174.63991303 -43.37618989 172.00610453 -39.625 169.375 C-39.02083252 168.92954834 -38.41666504 168.48409668 -37.79418945 168.02514648 C-34.62719619 165.71396479 -31.56525959 163.72443173 -28.00390625 162.07421875 C-23.42391343 159.89248414 -23.42391343 159.89248414 -18 154 C-17.67 145.09 -17.34 136.18 -17 127 C-46.37 127 -75.74 127 -106 127 C-103.25261267 124.25261267 -101.39990661 123.0048139 -98.01171875 121.28515625 C-97.00592773 120.76969238 -96.00013672 120.25422852 -94.96386719 119.72314453 C-93.88266602 119.17513184 -92.80146484 118.62711914 -91.6875 118.0625 C-82.22138968 113.20615252 -72.78918209 108.30387378 -63.515625 103.08666992 C-59.66380642 100.92858157 -55.91476238 98.88400928 -51.77734375 97.328125 C-46.91209585 95.36367569 -46.91209585 95.36367569 -43 92 C-41.9625239 88.1701178 -41.91806709 84.33975405 -42.12963867 80.39599609 C-42.43689159 74.48901199 -42.43689159 74.48901199 -39.7734375 71.5078125 C-35.30426414 69.0780929 -30.93586757 68.27297041 -25.93359375 69.51171875 C-22.51832371 70.85928876 -21.06069108 71.90896337 -19 75 C-19.00999275 73.97761986 -19.00999275 73.97761986 -19.02018738 72.93458557 C-19.08678295 65.81263975 -19.13190106 58.69078303 -19.16479492 51.56860352 C-19.1781397 48.91380224 -19.20028011 46.25949147 -19.22631836 43.60473633 C-19.26288673 39.77939748 -19.27976928 35.95438858 -19.29296875 32.12890625 C-19.31619453 30.36118614 -19.31619453 30.36118614 -19.33988953 28.55775452 C-19.34179999 19.11070256 -18.15135702 11.47403673 -11.54296875 4.44140625 C-7.85622253 0.99733193 -5.06159014 -0.54070399 0 0 Z " fill="#4A4A4A" transform="translate(363,0)"/>
<path d="M0 0 C41.91 0 83.82 0 127 0 C127.6547375 7.85685006 128.13540452 15.40995984 128.0625 23.25 C128.05798828 24.19746094 128.05347656 25.14492188 128.04882812 26.12109375 C128.03724711 28.41413442 128.02094479 30.70702914 128 33 C119.09332582 34.19840633 113.51487368 32.71280652 106.29980469 27.63427734 C86.94209009 14.00921927 65.27417811 13.60511573 42 12 C42 36.09 42 60.18 42 85 C54.54 85 67.08 85 80 85 C80 89.29 80 93.58 80 98 C67.46 98 54.92 98 42 98 C42 120.44 42 142.88 42 166 C77.90750466 163.8373528 77.90750466 163.8373528 109.1875 148.5625 C115.33630072 144.17291599 120.65795232 144.14737511 128 145 C128.02968644 148.2499799 128.04702345 151.49992383 128.0625 154.75 C128.07087891 155.65105469 128.07925781 156.55210937 128.08789062 157.48046875 C128.11254884 164.43408582 127.58280281 171.00636626 127 178 C85.09 178 43.18 178 0 178 C0 170.18697479 0 170.18697479 3.25 165.6875 C10.3193203 155.2695543 12.14694832 145.91941314 12.16113281 133.51928711 C12.16609772 132.47615356 12.17106262 131.43302002 12.17617798 130.35827637 C12.19075572 126.91462538 12.19759539 123.4710205 12.203125 120.02734375 C12.20888139 117.62325541 12.21463906 115.21916707 12.22039795 112.81507874 C12.23089639 107.77393379 12.23674619 102.73280473 12.24023438 97.69165039 C12.24570737 91.25845399 12.26971495 84.82547049 12.29820633 78.39234066 C12.31691091 73.42409164 12.32204253 68.45589302 12.32357025 63.48761177 C12.3265812 61.11754763 12.33455652 58.74748405 12.34775543 56.37745476 C12.84027315 35.39769293 12.84027315 35.39769293 6 15.875 C5.505 15.00617187 5.01 14.13734375 4.5 13.2421875 C3.15802339 10.97952485 3.15802339 10.97952485 1.3125 9.6953125 C0 8 0 8 0 0 Z " fill="#494949" transform="translate(620,0)"/>
<path d="M0 0 C35.64 0 71.28 0 108 0 C108 12.54 108 25.08 108 38 C103.2975 38.103125 98.595 38.20625 93.75 38.3125 C92.27241211 38.35802002 90.79482422 38.40354004 89.27246094 38.45043945 C88.10489258 38.46292725 86.93732422 38.47541504 85.734375 38.48828125 C83.94338379 38.52755737 83.94338379 38.52755737 82.11621094 38.56762695 C78.07682822 37.83184156 77.34257577 36.24277273 75 33 C72.94387218 32.3126235 72.94387218 32.3126235 71 32 C71.03714827 46.81208962 71.09698155 61.62394185 71.18390274 76.4358263 C71.22373063 83.31309723 71.25610392 90.1902531 71.27099609 97.06762695 C71.28538028 103.7007788 71.3204483 110.3336106 71.36830902 116.96661949 C71.38318231 119.50120641 71.3910444 122.0358442 71.39188385 124.57047462 C71.39423732 128.11223282 71.42118751 131.65299289 71.45410156 135.19458008 C71.4490712 136.24977844 71.44404083 137.30497681 71.43885803 138.39215088 C71.45277084 139.35548843 71.46668365 140.31882599 71.48101807 141.31135559 C71.48470524 142.14926541 71.48839241 142.98717524 71.49219131 143.85047626 C72.17557746 146.74320887 73.6237899 147.3396696 76 149 C76.45410156 152.00268555 76.45410156 152.00268555 76.390625 155.63671875 C76.38063477 156.80678467 76.37064453 157.97685059 76.36035156 159.18237305 C76.32393555 160.66906494 76.28751953 162.15575684 76.25 163.6875 C76.1675 168.410625 76.085 173.13375 76 178 C61.48 178 46.96 178 32 178 C31.896875 173.276875 31.79375 168.55375 31.6875 163.6875 C31.61921997 161.45746216 31.61921997 161.45746216 31.54956055 159.18237305 C31.53707275 158.01230713 31.52458496 156.84224121 31.51171875 155.63671875 C31.48553467 154.43748779 31.45935059 153.23825684 31.43237305 152.00268555 C31.61968994 151.01179932 31.80700684 150.02091309 32 149 C33.23466003 148.49889709 33.23466003 148.49889709 34.4942627 147.9876709 C37.1610493 146.29814364 37.1610493 146.29814364 37.4749651 143.91374683 C37.65901278 140.99805838 37.68330592 138.11614238 37.65942383 135.19458008 C37.67514938 133.52606239 37.67514938 133.52606239 37.69119263 131.82383728 C37.72004626 128.13878844 37.71363858 124.45467329 37.70703125 120.76953125 C37.72013994 118.21789872 37.73544158 115.66627659 37.75285339 113.1146698 C37.7887264 107.07979965 37.80244335 101.04527057 37.8054778 95.01032704 C37.81016498 88.13966281 37.84307719 81.26922484 37.87837565 74.3986603 C37.950352 60.26580128 37.98683355 46.13302739 38 32 C35.5397834 32.3039187 35.5397834 32.3039187 33 33 C32.54326904 33.8355542 32.08653809 34.6711084 31.6159668 35.53198242 C31.08269775 36.34642822 30.54942871 37.16087402 30 38 C26.90551758 38.56762695 26.90551758 38.56762695 23.14453125 38.48828125 C21.93385986 38.47579346 20.72318848 38.46330566 19.47583008 38.45043945 C17.93693115 38.40491943 16.39803223 38.35939941 14.8125 38.3125 C9.924375 38.209375 5.03625 38.10625 0 38 C0 25.46 0 12.92 0 0 Z " fill="#484848" transform="translate(24,0)"/>
<path d="M0 0 C16.17 0 32.34 0 49 0 C49 8.9252669 49 8.9252669 47.0625 12.0625 C43.92679938 17.78710647 43.62145076 22.31275682 45.28842163 28.63253784 C46.70752447 33.35397459 48.50320005 37.93491097 50.26953125 42.53515625 C50.69827545 43.66263779 51.12701965 44.79011932 51.5687561 45.95176697 C52.73609611 49.01884416 53.90745403 52.08434823 55.08069992 55.14916992 C56.31296904 58.37100281 57.5401012 61.59479131 58.76782227 64.81835938 C60.81199418 70.18358255 62.85938208 75.54756827 64.90917969 80.91064453 C67.66524262 88.12160659 70.41563397 95.33471966 73.16441536 102.54846001 C84.49910096 132.30622825 84.49910096 132.30622825 96 162 C100.05764721 153.26045216 103.40319757 144.25557129 106.8125 135.25 C107.50068738 133.43737062 108.18900524 131.62479077 108.87744141 129.81225586 C111.2567011 123.54342119 113.62881933 117.27189425 116 111 C116.68875214 109.1785849 116.68875214 109.1785849 117.39141846 107.32037354 C120.64034966 98.72785534 123.88593865 90.13407847 127.12902451 81.53935242 C127.86181723 79.59743465 128.59479624 77.65558727 129.32778931 75.71374512 C131.65048584 69.55914633 133.96814879 63.40272146 136.27636719 57.24267578 C137.8971665 52.91915147 139.53266154 48.60195274 141.19020653 44.29243183 C142.36657567 41.22795093 143.5292668 38.15826478 144.6953125 35.08984375 C145.34643509 33.41711143 145.34643509 33.41711143 146.01071167 31.71058655 C149.62084054 22.23560739 149.62084054 22.23560739 147.5 12.625 C146 9 146 9 146 0 C155.9 0 165.8 0 176 0 C176 9 176 9 173.953125 11.234375 C172.61507812 11.98460937 172.61507812 11.98460937 171.25 12.75 C163.20310373 17.40872942 160.81171784 23.34156276 157.68359375 31.76171875 C157.2750415 32.83885132 156.86648926 33.91598389 156.44555664 35.02575684 C155.10100823 38.57651335 153.76935059 42.13196339 152.4375 45.6875 C151.4951301 48.18239661 150.55199068 50.6769868 149.60766602 53.17114258 C147.66965853 58.29321599 145.73709339 63.4173084 143.80859375 68.54296875 C140.09083811 78.42254346 136.34112286 88.28994025 132.58953857 98.15670776 C131.43847756 101.18492822 130.28870149 104.21363401 129.13916016 107.24243164 C120.17192992 130.85864639 111.08560294 154.42913127 102 178 C92.43 178 82.86 178 73 178 C70.53904667 172.462855 68.15046373 166.99540217 65.99609375 161.34765625 C65.58343765 160.27423981 65.58343765 160.27423981 65.16244507 159.17913818 C64.25170948 156.80784612 63.34454542 154.43520581 62.4375 152.0625 C61.77901357 150.34524882 61.12039998 148.62804641 60.46166992 146.91088867 C55.61289649 134.26036514 50.80308897 121.59505675 45.99575806 108.92874146 C44.80763848 105.79969665 43.61829258 102.67112099 42.4284668 99.54272461 C42.03007095 98.49520523 41.63167511 97.44768585 41.22120667 96.36842346 C40.4071993 94.22828313 39.59310167 92.08817714 38.77891541 89.94810486 C36.16108878 83.06404237 33.55489977 76.17567057 30.95414734 69.28514099 C29.16088021 64.54092845 27.35857028 59.80018404 25.55429077 55.06015015 C24.69535423 52.79794295 23.84013362 50.5343208 22.98892212 48.26919556 C15.62627853 27.03631957 15.62627853 27.03631957 1.50390625 10.109375 C0 8 0 8 0 0 Z " fill="#4B4B4B" transform="translate(435,0)"/>
<path d="M0 0 C18.15 0 36.3 0 55 0 C55 8 55 8 53.86328125 9.890625 C53.35152344 10.33921875 52.83976563 10.7878125 52.3125 11.25 C45.57444732 18.17965608 42.90382513 28.23122672 42.84178162 37.68843079 C42.82709839 39.38998573 42.82709839 39.38998573 42.81211853 41.12591553 C42.80636307 42.36093811 42.8006076 43.59596069 42.79467773 44.8684082 C42.78477814 46.17611679 42.77487854 47.48382538 42.76467896 48.8311615 C42.73770101 52.40924432 42.71665308 55.98734023 42.69667697 59.56546807 C42.67477343 63.30776354 42.64740615 67.05001897 42.62062073 70.7922821 C42.57075282 77.87528712 42.52579215 84.95831443 42.48259836 92.04136294 C42.43317548 100.1066481 42.37827612 108.17189308 42.32291877 116.23713934 C42.20918935 132.8247225 42.10233071 149.41234253 42 166 C48.40100883 165.95782371 54.80118339 165.88501978 61.20166016 165.79248047 C63.37183071 165.76453009 65.54209816 165.7431889 67.71240234 165.72900391 C84.94093377 165.60974781 100.02553955 164.82957869 114.9375 155.390625 C118 154 118 154 126 154 C126 161.92 126 169.84 126 178 C84.42 178 42.84 178 0 178 C0 169.10084034 0 169.10084034 3.25 165.25 C10.98531911 155.08760708 12.15137531 143.33569588 12.14526367 130.94067383 C12.14862228 129.95430939 12.1519809 128.96794495 12.15544128 127.95169067 C12.16490928 124.70345791 12.16689246 121.45527694 12.16796875 118.20703125 C12.17118474 115.93649779 12.17454907 113.66596455 12.17805481 111.39543152 C12.18403608 106.63853475 12.18589579 101.88165612 12.18530273 97.12475586 C12.18520129 91.05361835 12.19883961 84.98259826 12.21607494 78.91148853 C12.22723958 74.22122166 12.22922055 69.53098276 12.22869301 64.84070396 C12.22986693 62.60379317 12.23425543 60.36688151 12.24202538 58.1299839 C12.7108919 37.67889939 12.7108919 37.67889939 6.5625 18.5 C5.96566406 17.3553125 5.36882813 16.210625 4.75390625 15.03125 C3.17688617 12.06240721 3.17688617 12.06240721 1.27734375 10.09375 C0 8 0 8 0 0 Z " fill="#484848" transform="translate(764,0)"/>
<path d="M0 0 C0.66 0.33 1.32 0.66 2 1 C0.68 2.32 -0.64 3.64 -2 5 C-0.35 5.33 1.3 5.66 3 6 C3 6.33 3 6.66 3 7 C-0.63 7 -4.26 7 -8 7 C-5.4837822 4.39391727 -2.94865641 2.10618315 0 0 Z " fill="#8C8C8C" transform="translate(321,171)"/>
<path d="M0 0 C0.66 0.33 1.32 0.66 2 1 C-1.3 4.3 -4.6 7.6 -8 11 C-8 6.67750434 -5.85084926 5.11604454 -3 2 C-2.01 1.34 -1.02 0.68 0 0 Z " fill="#7C7C7C" transform="translate(356,1)"/>
</svg>
